<?xml version="1.0" encoding="UTF-8"?>
<svg version="1.1" xmlns="http://www.w3.org/2000/svg" width="1024" height="1024">
<path d="M0 0 C6.56219333 3.48387479 13.21019878 6.78936601 19.86209106 10.09707642 C23.11290476 11.71687879 26.35865788 13.34670368 29.60447693 14.97648621 C33.15020397 16.75672765 36.69730724 18.53421882 40.24438477 20.31176758 C42.04259816 21.21339005 43.84045203 22.11572992 45.63793945 23.01879883 C54.96936265 27.70618374 64.3136842 32.34212761 73.7734375 36.765625 C80.73126016 40.02618544 87.54168874 43.50098175 94.32203674 47.11424255 C105.25214417 52.91914905 116.34382127 58.40922791 127.41650391 63.93554688 C130.62573335 65.53730587 133.83312836 67.14270058 137.04005814 68.74905777 C153.0660164 76.79322535 153.0660164 76.79322535 169.25390625 84.50390625 C175.77538447 87.52083171 182.1185974 90.8162731 188.45855713 94.1960907 C195.11726716 97.73070275 201.85113693 101.09781445 208.61328125 104.4296875 C209.68640564 104.95990509 210.75953003 105.49012268 211.86517334 106.03640747 C216.2869012 108.22049302 220.70929388 110.40301545 225.13916016 112.57055664 C228.42687171 114.18097644 231.70796935 115.80425921 234.98828125 117.4296875 C236.46973129 118.14870491 236.46973129 118.14870491 237.98110962 118.88224792 C248.26249218 124.00320188 258.85572981 130.64641708 262.76673508 142.07080078 C263.38700176 144.21825415 263.9439663 146.37342946 264.48193359 148.54296875 C264.79757295 149.77989471 264.79757295 149.77989471 265.11958885 151.04180908 C267.8788953 161.97880672 270.36376082 172.98193005 272.86328125 183.98046875 C273.4092766 186.37211379 273.95555877 188.76369336 274.50210571 191.1552124 C275.80794582 196.87218463 277.11100893 202.58978424 278.41277611 208.30768514 C279.92628325 214.95485913 281.44336963 221.60121465 282.96080303 228.24749327 C283.72754353 231.60579027 284.49416098 234.96411536 285.26074219 238.32244873 C285.48818941 239.31887607 285.48818941 239.31887607 285.72023153 240.33543324 C286.79157855 245.02926217 287.86227012 249.72324032 288.93261719 254.41729736 C292.4852618 269.99738579 296.04358599 285.57615243 299.61328125 301.15234375 C299.81946831 302.05206217 300.02565536 302.95178059 300.23809052 303.8787632 C301.04290599 307.3905371 301.84776865 310.90230019 302.65271378 314.41404438 C308.70481148 340.81869266 314.74392124 367.22634347 320.75866699 393.63952637 C321.4188186 396.53837664 322.07972317 399.43705349 322.74133301 402.33557129 C323.63816472 406.26492386 324.53215335 410.19491756 325.42578125 414.125 C325.8195546 415.84808128 325.8195546 415.84808128 326.22128296 417.60597229 C326.46101837 418.66259567 326.70075378 419.71921906 326.94775391 420.80786133 C327.15469879 421.71667557 327.36164368 422.62548981 327.57485962 423.56184387 C330.11162116 435.61053116 330.37233961 446.89794693 323.57421875 457.60546875 C320.20382154 462.344047 316.45579163 466.77991511 312.6953125 471.2109375 C310.39623008 473.92420576 308.13318922 476.66112696 305.88671875 479.41796875 C301.37384474 484.94703957 296.83634508 490.4556003 292.29663086 495.96264648 C289.00293346 499.95955786 285.71959235 503.96442648 282.44921875 507.98046875 C279.20252745 511.95736386 275.89953293 515.88196837 272.57421875 519.79296875 C268.66579136 524.39103947 264.84440028 529.04502095 261.09375 533.7734375 C258.23542634 537.36203148 255.32406849 540.90639976 252.4140625 544.453125 C250.92371673 546.27068219 249.43660381 548.09089623 247.953125 549.9140625 C243.41599347 555.48640408 238.80777293 560.99068227 234.15283203 566.46435547 C231.42672438 569.67900604 228.75506307 572.92675005 226.13671875 576.23046875 C223.06358985 580.10801584 219.90397063 583.89945361 216.69921875 587.66796875 C210.426533 595.04563131 204.28301465 602.52083436 198.26171875 610.10546875 C195.1240044 614.04323775 191.89938597 617.89652823 188.63671875 621.73046875 C183.01253097 628.3443986 177.55683236 635.07357772 172.26953125 641.9609375 C171.52316406 642.92688843 171.52316406 642.92688843 170.76171875 643.91235352 C169.77449996 645.19120676 168.79256786 646.47416149 167.81640625 647.76147461 C166.63604883 649.28801085 165.39147549 650.76447351 164.13671875 652.23046875 C163.47671875 652.23046875 162.81671875 652.23046875 162.13671875 652.23046875 C161.894375 652.7821875 161.65203125 653.33390625 161.40234375 653.90234375 C159.86060704 656.73837794 157.96284594 659.00888876 155.88671875 661.48046875 C152.55871607 665.47193178 149.39977597 669.50854467 146.42578125 673.76953125 C145.13671875 675.23046875 145.13671875 675.23046875 142.13671875 676.23046875 C141.42690217 677.5413397 140.76685783 678.87948875 140.13671875 680.23046875 C133.82714672 688.73601928 125.75647244 695.2638477 115.13671875 697.23046875 C112.44477962 697.36387458 109.83539835 697.32515926 107.13671875 697.23046875 C106.80671875 697.89046875 106.47671875 698.55046875 106.13671875 699.23046875 C105.14671875 698.90046875 104.15671875 698.57046875 103.13671875 698.23046875 C101.07778254 698.00721061 99.01438222 697.82341116 96.94921875 697.66796875 C95.86253906 697.58417969 94.77585937 697.50039063 93.65625 697.4140625 C92.82480469 697.35347656 91.99335937 697.29289063 91.13671875 697.23046875 C90.80671875 697.89046875 90.47671875 698.55046875 90.13671875 699.23046875 C90.13671875 698.57046875 90.13671875 697.91046875 90.13671875 697.23046875 C89.58886719 697.30265625 89.04101562 697.37484375 88.4765625 697.44921875 C78.77452429 698.58506713 68.76452143 699.09105638 59.13671875 697.23046875 C58.80671875 697.89046875 58.47671875 698.55046875 58.13671875 699.23046875 C57.80671875 698.90046875 57.47671875 698.57046875 57.13671875 698.23046875 C53.50477234 698.03897794 53.50477234 698.03897794 50.13671875 699.23046875 C48.53491658 698.99190247 46.93364391 698.74898466 45.3359375 698.484375 C41.8202252 698.07847571 38.31851307 698.2119749 34.78515625 698.29296875 C32.12013235 698.23007733 29.72932342 697.8294821 27.13671875 697.23046875 C26.80671875 697.89046875 26.47671875 698.55046875 26.13671875 699.23046875 C23.82671875 698.57046875 21.51671875 697.91046875 19.13671875 697.23046875 C18.80671875 697.89046875 18.47671875 698.55046875 18.13671875 699.23046875 C17.51796875 699.08609375 16.89921875 698.94171875 16.26171875 698.79296875 C11.91134858 698.00990212 7.53649968 697.63200216 3.13671875 697.23046875 C2.80671875 697.89046875 2.47671875 698.55046875 2.13671875 699.23046875 C1.41769379 699.06748291 0.69866882 698.90449707 -0.04214478 698.73657227 C-2.77538615 698.24623687 -5.22928495 698.11619827 -8.00146484 698.1328125 C-8.9995517 698.13611572 -9.99763855 698.13941895 -11.02597046 698.14282227 C-12.0937674 698.15112061 -13.16156433 698.15941895 -14.26171875 698.16796875 C-15.37004059 698.17175537 -16.47836243 698.17554199 -17.62026978 698.17944336 C-22.35366345 698.19576383 -27.08697023 698.22387727 -31.8203125 698.25097656 C-35.27994383 698.26909481 -38.73956101 698.28116908 -42.19921875 698.29296875 C-43.26296722 698.30126709 -44.3267157 698.30956543 -45.42269897 698.31811523 C-50.68596385 698.33542496 -55.67895379 698.15862323 -60.86328125 697.23046875 C-61.19328125 697.89046875 -61.52328125 698.55046875 -61.86328125 699.23046875 C-63.18328125 699.23046875 -64.50328125 699.23046875 -65.86328125 699.23046875 C-66.85328125 699.56046875 -67.84328125 699.89046875 -68.86328125 700.23046875 C-69.48203125 699.90046875 -70.10078125 699.57046875 -70.73828125 699.23046875 C-72.84626292 697.97759232 -72.84626292 697.97759232 -75.23828125 698.73046875 C-78.61834208 699.37428986 -80.71035154 698.47697585 -83.86328125 697.23046875 C-83.86328125 697.89046875 -83.86328125 698.55046875 -83.86328125 699.23046875 C-84.95640625 699.04484375 -86.04953125 698.85921875 -87.17578125 698.66796875 C-90.79952258 697.97266195 -90.79952258 697.97266195 -93.86328125 699.23046875 C-95.53221702 698.90868886 -97.19848865 698.57303917 -98.86328125 698.23046875 C-101.3228951 698.13841993 -103.78475901 698.09979947 -106.24609375 698.09765625 C-106.94217743 698.09669952 -107.63826111 698.0957428 -108.35543823 698.09475708 C-109.81947928 698.09407944 -111.2835234 698.09590456 -112.74755859 698.10009766 C-114.98802407 698.10546813 -117.22829057 698.10013028 -119.46875 698.09375 C-120.89453169 698.09441054 -122.32031326 698.0956912 -123.74609375 698.09765625 C-125.68572998 698.09934814 -125.68572998 698.09934814 -127.66455078 698.10107422 C-130.88371951 698.08304554 -130.88371951 698.08304554 -133.86328125 699.23046875 C-135.52994792 698.89713542 -137.19661458 698.56380208 -138.86328125 698.23046875 C-139.85328125 698.56046875 -140.84328125 698.89046875 -141.86328125 699.23046875 C-143.40591375 698.9905037 -144.94815892 698.74776814 -146.48828125 698.4921875 C-155.91083963 697.30664652 -155.91083963 697.30664652 -164.86328125 699.23046875 C-165.70890625 699.08480469 -166.55453125 698.93914063 -167.42578125 698.7890625 C-171.62588361 698.10654587 -175.62119988 698.20933049 -179.86328125 698.29296875 C-195.11819222 698.41659755 -207.11112462 697.17638782 -218.64453125 686.4921875 C-222.39533182 682.66874818 -225.60153373 678.47010963 -228.86328125 674.23046875 C-233.63362243 668.30501723 -238.49881973 662.46324793 -243.42578125 656.66796875 C-247.22222945 652.20090991 -250.93183243 647.68014082 -254.57421875 643.0859375 C-257.61497827 639.29277161 -260.70716845 635.54307496 -263.80078125 631.79296875 C-264.71537109 630.68429443 -264.71537109 630.68429443 -265.6484375 629.55322266 C-266.84274418 628.10560738 -268.0370793 626.65801555 -269.23144531 625.21044922 C-273.47708637 620.05902059 -277.69515365 614.88498239 -281.91796875 609.71484375 C-285.35786763 605.50632278 -288.80245326 601.30198948 -292.26171875 597.109375 C-302.92378216 584.18592233 -302.92378216 584.18592233 -307.05078125 578.98046875 C-310.01534055 575.24638554 -313.08030508 571.6060143 -316.17578125 567.98046875 C-320.42283436 563.00045883 -324.50371143 557.9151565 -328.5222168 552.74975586 C-333.97768931 545.76032265 -339.64809924 538.94884854 -345.30175781 532.11962891 C-347.33146044 529.66405684 -349.34854712 527.19833082 -351.36328125 524.73046875 C-353.98172475 521.52471082 -356.60788075 518.32553703 -359.2421875 515.1328125 C-364.76599804 508.43800144 -370.2787999 501.73997754 -375.6796875 494.9453125 C-378.68980821 491.20285473 -381.74526851 487.4984021 -384.80078125 483.79296875 C-385.40567383 483.05933105 -386.01056641 482.32569336 -386.63378906 481.56982422 C-388.86958457 478.85890704 -391.10587977 476.14840234 -393.34228516 473.43798828 C-394.6006922 471.9116418 -395.85706972 470.38362268 -397.11328125 468.85546875 C-397.7990625 468.02273438 -398.48484375 467.19 -399.19140625 466.33203125 C-400.86328125 464.23046875 -400.86328125 464.23046875 -402.86328125 461.23046875 C-403.85328125 460.57046875 -404.84328125 459.91046875 -405.86328125 459.23046875 C-405.86328125 458.57046875 -405.86328125 457.91046875 -405.86328125 457.23046875 C-406.48001202 455.6355743 -407.13092761 454.05379047 -407.80078125 452.48046875 C-411.9994835 442.10982255 -411.24385427 432.6037294 -408.97265625 421.8515625 C-408.64584869 420.26377235 -408.64584869 420.26377235 -408.31243896 418.64390564 C-404.72332038 401.47280434 -400.72974059 384.38613189 -396.80153656 367.29029846 C-395.63230466 362.19833119 -394.46705168 357.10545327 -393.30126953 352.01269531 C-390.71424364 340.71478751 -388.12134639 329.41823197 -385.52720642 318.12195587 C-384.48414876 313.57929363 -383.44178658 309.03647185 -382.39941406 304.49365234 C-379.48376746 291.78774011 -376.56727792 279.08202285 -373.64477539 266.37768555 C-373.47561395 265.64232354 -373.3064525 264.90696154 -373.13216496 264.14931583 C-372.79544415 262.68558226 -372.45872243 261.22184891 -372.12199974 259.75811577 C-371.95798983 259.04516413 -371.79397991 258.33221249 -371.625 257.59765625 C-371.46302942 256.89359209 -371.30105885 256.18952793 -371.13418007 255.46412849 C-368.91763155 245.82811218 -366.70893619 236.19033528 -364.5078125 226.55078125 C-364.1221814 224.86305603 -364.1221814 224.86305603 -363.72875977 223.14123535 C-362.57037503 218.07147282 -361.4132651 213.00142925 -360.25927734 207.93066406 C-359.86063304 206.18418052 -359.46171843 204.43775865 -359.0625 202.69140625 C-358.87679443 201.87700073 -358.69108887 201.06259521 -358.49975586 200.22351074 C-357.60866535 196.34712836 -356.68335955 192.48430873 -355.68603516 188.63378906 C-355.49821976 187.90616364 -355.31040436 187.17853821 -355.11689758 186.42886353 C-354.60991946 184.48397311 -354.09215636 182.54190273 -353.57348633 180.60009766 C-352.74812311 177.2733372 -352.74812311 177.2733372 -352.8815918 173.97412109 C-352.86328125 171.23046875 -352.86328125 171.23046875 -350.86328125 168.23046875 C-350.313099 166.3733172 -349.83030965 164.49574447 -349.390625 162.609375 C-349.13087891 161.50916016 -348.87113281 160.40894531 -348.60351562 159.27539062 C-348.33861328 158.12619141 -348.07371094 156.97699219 -347.80078125 155.79296875 C-347.53201172 154.64763672 -347.26324219 153.50230469 -346.98632812 152.32226562 C-346.48667027 150.19280111 -345.98957633 148.06273225 -345.49584961 145.93188477 C-345.28710205 145.04041748 -345.07835449 144.1489502 -344.86328125 143.23046875 C-344.71052734 142.50964111 -344.55777344 141.78881348 -344.40039062 141.04614258 C-342.4981542 134.61571881 -335.06244043 127.56588074 -329.42578125 124.04296875 C-323.88979238 121.07602472 -318.14162942 118.47672044 -312.44750977 115.82739258 C-306.65844666 113.1256801 -300.99502401 110.24511782 -295.36328125 107.23046875 C-289.10543708 103.88488193 -282.79651127 100.72497471 -276.36328125 97.73046875 C-270.01447237 94.77454032 -263.78763833 91.66020014 -257.61328125 88.35546875 C-250.61864563 84.6133387 -243.53643998 81.11738042 -236.36328125 77.73046875 C-228.32997402 73.93520023 -220.42145052 69.97132224 -212.58081055 65.79345703 C-207.07672978 62.86083504 -201.53629799 60.01821914 -195.94807434 57.24945068 C-192.68860102 55.63446913 -189.4309591 54.01620215 -186.18041992 52.38330078 C-175.93024916 47.23458505 -165.62149402 42.21464302 -155.29052734 37.23046875 C-142.02497113 30.82748522 -128.77659721 24.39436185 -115.80078125 17.41796875 C-107.94983271 13.24307133 -99.98078918 9.36467332 -91.94140625 5.56738281 C-83.04016293 1.3517873 -74.24231615 -3.06006388 -65.46655273 -7.53051758 C-64.43087158 -8.05411865 -63.39519043 -8.57771973 -62.328125 -9.1171875 C-60.96095337 -9.8134021 -60.96095337 -9.8134021 -59.56616211 -10.52368164 C-37.98188673 -20.47260742 -19.11616044 -10.19762947 0 0 Z M-17.44140625 213.625 C-19.3535078 215.78399378 -21.61046374 217.44146661 -23.86328125 219.23046875 C-23.86328125 219.89046875 -23.86328125 220.55046875 -23.86328125 221.23046875 C-24.50265625 221.49859375 -25.14203125 221.76671875 -25.80078125 222.04296875 C-28.19459811 223.11714627 -28.19459811 223.11714627 -28.86328125 226.23046875 C-30.17899854 226.93126133 -31.51506999 227.59442737 -32.86328125 228.23046875 C-34.63821446 229.68212494 -34.63821446 229.68212494 -36.17578125 231.41796875 C-36.97435547 232.24361328 -36.97435547 232.24361328 -37.7890625 233.0859375 C-39.54589278 236.59320959 -39.0025216 238.50380116 -37.86328125 242.23046875 C-35.56277771 245.24544668 -32.88383809 247.77514381 -30.11328125 250.35546875 C-29.3965625 251.04511719 -28.67984375 251.73476563 -27.94140625 252.4453125 C-26.59569602 253.73907435 -25.24387248 255.02653242 -23.88378906 256.30517578 C-21.50302225 258.57375082 -19.18589164 260.90277339 -16.86328125 263.23046875 C-15.64917814 264.44483242 -14.43493271 265.65905381 -13.22058105 266.87316895 C60.49401855 340.58776855 60.49401855 340.58776855 62.40353203 342.49813652 C63.4900498 343.58411862 64.57756793 344.66910179 65.66655159 345.75261116 C68.25664599 348.33114986 70.71962868 350.97399402 73.12890625 353.72265625 C78.91721442 360.19165987 85.08952715 366.25677645 91.26171875 372.35546875 C104.11092962 385.05261795 104.11092962 385.05261795 109.43701172 391.30810547 C112.97073711 395.30473772 116.83620073 398.98999051 120.63671875 402.73046875 C125.74962404 407.76260144 130.73744149 412.81277669 135.41650391 418.25244141 C138.52746928 421.82965422 141.78028686 425.25968628 145.07421875 428.66796875 C145.73873047 429.38662109 146.40324219 430.10527344 147.08789062 430.84570312 C150.33766489 434.18373508 152.71562382 436.58061362 157.44921875 437.20703125 C164.11425761 437.24939379 167.46361665 436.51992123 172.359375 432.03125 C174.79318294 429.56534789 177.01412051 426.94232228 179.25390625 424.30078125 C181.25820964 422.09687918 183.38365123 420.17803559 185.63671875 418.23046875 C189.27278423 415.07673849 192.48956614 411.78921676 195.5625 408.0859375 C197.13671875 406.23046875 197.13671875 406.23046875 198.6796875 404.78125 C201.81067463 401.72042504 202.59067614 399.07552718 202.88671875 394.85546875 C202.54426879 388.3401387 199.75356825 385.51982546 195.13671875 381.23046875 C193.79526741 379.85916315 192.45395131 378.48771895 191.11621094 377.11279297 C186.95641118 372.87128798 182.65760737 368.81756062 178.14453125 364.953125 C171.92395203 359.61601325 165.90958613 354.03857515 159.88671875 348.48046875 C159.34982422 347.98554932 158.81292969 347.49062988 158.25976562 346.98071289 C155.24478811 344.19612014 152.24727984 341.39448195 149.265625 338.57421875 C148.30994629 337.67461426 148.30994629 337.67461426 147.33496094 336.75683594 C146.09601957 335.58975446 144.86086223 334.41864038 143.62988281 333.24316406 C140.853075 330.23608033 140.853075 330.23608033 137.13671875 329.23046875 C137.13671875 328.57046875 137.13671875 327.91046875 137.13671875 327.23046875 C135.45149146 325.52562409 135.45149146 325.52562409 133.32421875 323.79296875 C129.28476913 320.38629266 129.28476913 320.38629266 127.5 318.5078125 C126.20483989 317.00255794 126.20483989 317.00255794 124.13671875 317.23046875 C124.13671875 316.57046875 124.13671875 315.91046875 124.13671875 315.23046875 C122.85797916 313.89794566 122.85797916 313.89794566 121.07421875 312.48046875 C118.09369203 309.96095875 115.20447751 307.37395814 112.37109375 304.69140625 C111.37348022 303.7473291 111.37348022 303.7473291 110.35571289 302.78417969 C109.01048546 301.50701388 107.66847238 300.22645314 106.32983398 298.94238281 C105.70278564 298.3490918 105.0757373 297.75580078 104.4296875 297.14453125 C103.86789795 296.60779785 103.3061084 296.07106445 102.72729492 295.51806641 C101.05064089 294.00670985 101.05064089 294.00670985 98.13671875 293.23046875 C98.13671875 292.57046875 98.13671875 291.91046875 98.13671875 291.23046875 C96.63347599 289.69280719 96.63347599 289.69280719 94.66015625 288.1015625 C91.67085502 285.56085407 88.76349292 282.9749545 85.92578125 280.265625 C85.23871094 279.61142578 84.55164063 278.95722656 83.84375 278.28320312 C82.42982201 276.9316153 81.01844811 275.57735155 79.609375 274.22070312 C78.59037109 273.25293945 78.59037109 273.25293945 77.55078125 272.265625 C76.94186035 271.68176025 76.33293945 271.09789551 75.70556641 270.49633789 C74.21327917 269.02115087 74.21327917 269.02115087 72.13671875 269.23046875 C72.13671875 268.57046875 72.13671875 267.91046875 72.13671875 267.23046875 C70.60635685 265.66288171 70.60635685 265.66288171 68.609375 264.046875 C64.48044911 260.53488376 60.51439626 256.88916456 56.57421875 253.16796875 C55.17070841 251.84751221 53.76705927 250.5272032 52.36328125 249.20703125 C51.30802246 248.21364746 51.30802246 248.21364746 50.23144531 247.20019531 C40.77312677 238.30628925 31.26255735 229.46817485 21.70849609 220.67724609 C20.10659623 219.20274181 18.50642396 217.72637688 16.90625 216.25 C14.87495805 214.37669049 12.83573152 212.51273877 10.7890625 210.65625 C9.19585012 209.1991294 7.61936139 207.72292842 6.078125 206.2109375 C3.30878849 203.57729231 1.40552429 202.28806994 -2.36328125 201.48046875 C-9.22997627 202.9519034 -13.1463019 208.39467131 -17.44140625 213.625 Z M-170.86328125 321.23046875 C-171.19328125 321.56046875 -171.52328125 321.89046875 -171.86328125 322.23046875 C-173.75046875 322.19953125 -173.75046875 322.19953125 -175.67578125 322.16796875 C-178.93754126 322.11526527 -181.07779379 322.37347711 -183.86328125 324.23046875 C-183.86328125 324.89046875 -183.86328125 325.55046875 -183.86328125 326.23046875 C-184.52328125 326.23046875 -185.18328125 326.23046875 -185.86328125 326.23046875 C-186.31058594 326.71128906 -186.75789063 327.19210937 -187.21875 327.6875 C-189.26227679 329.60482324 -190.41501248 329.70340123 -193.17578125 329.91796875 C-193.96984375 329.98371094 -194.76390625 330.04945313 -195.58203125 330.1171875 C-198.34392103 330.25433614 -201.09847224 330.23046875 -203.86328125 330.23046875 C-204.58515625 330.41609375 -205.30703125 330.60171875 -206.05078125 330.79296875 C-207.86328125 331.23046875 -207.86328125 331.23046875 -210.86328125 330.23046875 C-213.4163649 330.13293522 -215.93592919 330.09131523 -218.48828125 330.10546875 C-219.16246094 330.10160156 -219.83664062 330.09773438 -220.53125 330.09375 C-224.07477093 330.10047395 -227.51152916 330.28026476 -231.02587891 330.74145508 C-235.88712091 331.29860394 -240.64931158 331.29116253 -245.53515625 331.1875 C-247.35155189 331.16513645 -249.16795886 331.1436784 -250.984375 331.12304688 C-253.81102637 331.08583464 -256.63708942 331.04247317 -259.46337891 330.98364258 C-262.21655861 330.92916892 -264.96907278 330.90008491 -267.72265625 330.875 C-268.56544128 330.8512178 -269.40822632 330.82743561 -270.27655029 330.80293274 C-274.34754147 330.78477579 -276.34535869 330.9038884 -279.87207031 333.12768555 C-283.24896773 336.69379852 -283.39582297 339.60600722 -283.3203125 344.390625 C-281.67211395 354.63199545 -271.7961082 363.02739667 -264.86328125 370.23046875 C-264.30253906 370.86597656 -263.74179687 371.50148438 -263.1640625 372.15625 C-245.88350201 391.16033095 -219.489155 398.82203262 -195.85546875 406.078125 C-165.82003314 415.3391981 -165.82003314 415.3391981 -159.58984375 425.2578125 C-154.84157026 434.83854873 -155.37107252 443.46339906 -158.50390625 453.5390625 C-161.89885553 462.75810581 -167.82755021 471.71260323 -176.86328125 476.23046875 C-176.86328125 476.89046875 -176.86328125 477.55046875 -176.86328125 478.23046875 C-177.64703125 478.47796875 -178.43078125 478.72546875 -179.23828125 478.98046875 C-182.0006726 479.93301749 -184.61724113 480.96754022 -187.30078125 482.10546875 C-191.03816476 483.6504054 -194.72873673 484.71737552 -198.66748047 485.63256836 C-205.57958707 487.04929534 -205.57958707 487.04929534 -211.17578125 491.04296875 C-215.76677884 499.71485309 -216.42610014 509.83874756 -213.67578125 519.29296875 C-212.19443667 523.08326357 -210.46340787 525.17325354 -206.86328125 527.23046875 C-202.5043871 528.41505678 -198.16176956 528.37600383 -193.67837524 528.37091064 C-192.85824806 528.37388177 -192.03812087 528.37685289 -191.19314134 528.37991405 C-188.44727266 528.38858003 -185.70144768 528.3901075 -182.95556641 528.39160156 C-180.98591519 528.39623114 -179.01626488 528.40125599 -177.0466156 528.40664673 C-171.69743905 528.41975735 -166.34827505 528.42621282 -160.99908495 528.43065739 C-157.65701536 528.43358965 -154.31494919 528.43769471 -150.97288132 528.44216156 C-140.51574807 528.4558316 -130.05862264 528.46550125 -119.60148108 528.46936345 C-107.53076368 528.47384621 -95.46015941 528.49140631 -83.38947642 528.52036405 C-74.05770626 528.5419742 -64.72596795 528.55206734 -55.39417303 528.55340457 C-49.82105304 528.55445287 -44.24803947 528.56036634 -38.67494583 528.57822418 C-33.43332667 528.59469375 -28.19189406 528.59686573 -22.95025826 528.58808517 C-21.0277958 528.58731427 -19.10532335 528.5916646 -17.18288612 528.60154343 C-14.55575346 528.61425068 -11.92928277 528.60839288 -9.30215454 528.59796143 C-8.54387442 528.60601783 -7.7855943 528.61407423 -7.004336 528.62237477 C-0.95207826 528.56628122 3.80971747 527.30590232 8.44921875 523.16796875 C13.1648725 514.95923815 12.70386459 505.32893419 11.13671875 496.23046875 C9.55829098 492.16844847 6.82196609 489.48158475 3.13671875 487.23046875 C0.05207917 486.30007145 -3.0899798 485.65809981 -6.23828125 484.98046875 C-21.27658044 481.49247748 -34.21031729 475.59110253 -42.86328125 462.23046875 C-50.34923487 448.19857852 -52.95935079 432.88397034 -49.14453125 417.29296875 C-44.91701091 404.46463118 -37.4707081 394.45526167 -25.421875 388.28125 C-17.95932314 384.61329304 -10.22020975 382.48304378 -2.22265625 380.30859375 C8.26568937 377.29072072 15.79485719 372.2133708 22.13671875 363.23046875 C26.29417523 354.85464068 27.36477176 346.17357315 24.82421875 337.17578125 C22.77912365 331.3890917 19.65981953 326.26427073 14.13671875 323.23046875 C6.66580253 320.90470921 -0.99896734 320.95008168 -8.74731445 320.98754883 C-9.99941711 320.98565048 -11.25151978 320.98375214 -12.54156494 320.98179626 C-15.95405981 320.97874157 -19.3663089 320.98456786 -22.7787745 320.99474931 C-26.38866251 321.00362605 -29.99854751 321.00177026 -33.60844421 321.00138855 C-39.68844773 321.0023234 -45.76840118 321.01096948 -51.84838867 321.0246582 C-58.7962647 321.04024706 -65.74408552 321.04566075 -72.6919778 321.04492265 C-80.17464898 321.04423602 -87.6572999 321.0512525 -95.13996482 321.06036925 C-97.25054555 321.06246181 -99.36112282 321.06320509 -101.47170448 321.06360817 C-117.00185682 321.06915651 -132.50181978 321.22623048 -148.01722431 321.97118092 C-154.89614443 322.2677123 -161.53720759 322.05708619 -168.39082813 321.36657429 C-169.20673766 321.32165946 -170.02264719 321.27674463 -170.86328125 321.23046875 Z " fill="#3271E7" transform="translate(552.86328125,163.76953125)"/>
<path d="M0 0 C8.9773905 6.86523906 20.99497164 16.20869328 26.13671875 26.4921875 C26.50879708 32.16638204 26.34527016 34.6934405 23.13671875 39.4921875 C21.35931511 41.45562967 19.57323957 43.33444156 17.69793701 45.19839478 C17.14903313 45.75182977 16.60012925 46.30526477 16.03459191 46.87547052 C14.199343 48.7233506 12.35704919 50.56403768 10.51464844 52.40478516 C9.19513069 53.73028887 7.87602369 55.05620158 6.55729675 56.38249207 C2.97729395 59.98015336 -0.60916586 63.57130996 -4.19736958 67.16078997 C-6.4393417 69.40418414 -8.6798835 71.64899653 -10.91991425 73.89432907 C-18.73598052 81.72889395 -26.55719303 89.55827853 -34.38330078 97.3828125 C-41.67637856 104.6746884 -48.95822538 111.97764739 -56.23489499 119.28589404 C-62.48519817 125.56235112 -68.74319091 131.83107032 -75.00722384 138.09382474 C-78.74729562 141.8333867 -82.4841994 145.57598519 -86.21341705 149.32637405 C-89.72086762 152.85319221 -93.23779894 156.3702725 -96.76221275 159.88013649 C-98.05282169 161.16865455 -99.34003311 162.46058617 -100.62353706 163.75618172 C-102.37875793 165.52686035 -104.14592377 167.28470798 -105.91656494 169.03994751 C-106.41940671 169.55307641 -106.92224848 170.0662053 -107.44032788 170.59488356 C-111.33857828 174.4188003 -115.53699584 177.17066606 -121.0859375 177.70703125 C-121.99666016 177.56974609 -121.99666016 177.56974609 -122.92578125 177.4296875 C-123.53550781 177.35621094 -124.14523437 177.28273438 -124.7734375 177.20703125 C-131.17454489 175.01749358 -135.8064187 169.84269079 -140.45703125 165.1640625 C-141.16678101 164.4562262 -141.87653076 163.74838989 -142.60778809 163.019104 C-144.10280099 161.52544729 -145.59531044 160.02928112 -147.08544922 158.53076172 C-149.3490604 156.25647541 -151.62309667 153.99301294 -153.8984375 151.73046875 C-155.35611011 150.27147383 -156.81316181 148.81185825 -158.26953125 147.3515625 C-158.94157593 146.68356628 -159.61362061 146.01557007 -160.30603027 145.32733154 C-173.31517868 132.19020956 -173.31517868 132.19020956 -174.30078125 123.7421875 C-173.96767357 113.71194509 -163.96521934 105.49438242 -157.29296875 98.984375 C-152.11287321 94.16673512 -146.71788301 89.73844177 -141.078125 85.47070312 C-136.35483286 81.89465611 -131.72095673 78.21588905 -127.11328125 74.4921875 C-126.40921143 73.92781982 -125.7051416 73.36345215 -124.97973633 72.78198242 C-124.3277124 72.2532251 -123.67568848 71.72446777 -123.00390625 71.1796875 C-122.42157227 70.70917969 -121.83923828 70.23867188 -121.23925781 69.75390625 C-119.7277497 68.51861389 -119.7277497 68.51861389 -118.86328125 66.4921875 C-119.41886719 66.25242187 -119.97445312 66.01265625 -120.546875 65.765625 C-123.38081823 64.20767307 -125.53240395 62.29035965 -127.92578125 60.1171875 C-128.78300781 59.34632813 -129.64023437 58.57546875 -130.5234375 57.78125 C-133.91685805 54.46147631 -136.29387365 52.13156255 -136.42578125 47.2421875 C-135.89388949 37.88509172 -126.80716672 31.14742817 -120.54833984 24.97143555 C-119.09661076 23.53822971 -117.65331014 22.09691308 -116.2109375 20.65429688 C-108.11812094 12.61284516 -108.11812094 12.61284516 -103.61328125 12.1796875 C-96.10019424 12.80577808 -91.57174341 18.48192807 -86.328125 23.46875 C-83.88803999 25.47186258 -81.84068906 26.50502555 -78.86328125 27.4921875 C-78.41637939 27.06510498 -77.96947754 26.63802246 -77.5090332 26.19799805 C-72.32899153 21.25796343 -67.1125477 16.35859884 -61.86328125 11.4921875 C-61.25097656 10.92306641 -60.63867188 10.35394531 -60.0078125 9.76757812 C-42.7065968 -6.14228106 -21.35600572 -14.52831922 0 0 Z " fill="#FDFEFE" transform="translate(568.86328125,266.5078125)"/>
<path d="M0 0 C3.55171307 2.65766116 6.14264603 5.29824519 8.75 8.875 C14.70411533 16.46007375 21.65496184 20.75345909 31 23 C35.27728745 23.41720382 39.52675424 23.40537041 43.82176208 23.38095093 C45.09238103 23.3856309 46.36299998 23.39031087 47.67212254 23.39513266 C51.17845364 23.40759858 54.68453821 23.40149257 58.19086993 23.39217401 C61.98032104 23.38536558 65.76973078 23.39587365 69.55917358 23.40411377 C76.97487832 23.41743461 84.39049181 23.41458062 91.80620008 23.40587585 C97.83517901 23.3990927 103.86413243 23.39818531 109.89311409 23.4014473 C110.7521448 23.401907 111.6111755 23.40236669 112.49623745 23.40284032 C114.24151333 23.40379953 115.98678922 23.40477217 117.73206509 23.4057581 C134.08747302 23.41430729 150.44283047 23.40448551 166.79823012 23.388357 C180.82099706 23.37495664 194.84368948 23.3772805 208.86645508 23.39111328 C225.16294886 23.40718154 241.45939841 23.41348085 257.75589901 23.40427649 C259.49495605 23.40332088 261.23401309 23.40237776 262.97307014 23.4014473 C263.82864643 23.40098447 264.68422271 23.40052164 265.56572555 23.40004479 C271.58444612 23.39745846 277.60313856 23.40181825 283.62185478 23.40888596 C290.96107561 23.41731511 298.30020022 23.41499123 305.63941007 23.39904372 C309.38143268 23.39117963 313.1232951 23.38803742 316.86531639 23.39799118 C320.9274341 23.40863265 324.98915014 23.39589421 329.05125427 23.38095093 C330.2260717 23.38764309 331.40088913 23.39433526 332.61130708 23.40123022 C341.72822791 23.33625425 349.94371281 22.12901488 357.375 16.5 C358.16648437 15.9121875 358.95796875 15.324375 359.7734375 14.71875 C360.50820313 14.1515625 361.24296875 13.584375 362 13 C363.33278728 11.99927235 364.66593603 10.99902507 366 10 C363.44461214 16.03760033 357.99662144 19.54413434 352.2421875 22.33984375 C346.63180939 24.53554883 342.0048408 25.45319553 336 25 C335.67 25.66 335.34 26.32 335 27 C334.01 26.67 333.02 26.34 332 26 C329.94106379 25.77674186 327.87766347 25.59294241 325.8125 25.4375 C324.72582031 25.35371094 323.63914062 25.26992188 322.51953125 25.18359375 C321.68808594 25.12300781 320.85664062 25.06242188 320 25 C319.67 25.66 319.34 26.32 319 27 C319 26.34 319 25.68 319 25 C318.45214844 25.0721875 317.90429688 25.144375 317.33984375 25.21875 C307.63780554 26.35459838 297.62780268 26.86058763 288 25 C287.67 25.66 287.34 26.32 287 27 C286.67 26.67 286.34 26.34 286 26 C282.36805359 25.80850919 282.36805359 25.80850919 279 27 C277.39819783 26.76143372 275.79692516 26.51851591 274.19921875 26.25390625 C270.68350645 25.84800696 267.18179432 25.98150615 263.6484375 26.0625 C260.9834136 25.99960858 258.59260467 25.59901335 256 25 C255.67 25.66 255.34 26.32 255 27 C252.69 26.34 250.38 25.68 248 25 C247.67 25.66 247.34 26.32 247 27 C246.38125 26.855625 245.7625 26.71125 245.125 26.5625 C240.77462983 25.77943337 236.39978093 25.40153341 232 25 C231.67 25.66 231.34 26.32 231 27 C229.92146255 26.75552124 229.92146255 26.75552124 228.82113647 26.50610352 C226.0878951 26.01576812 223.6339963 25.88572952 220.86181641 25.90234375 C219.86372955 25.90564697 218.8656427 25.9089502 217.83731079 25.91235352 C216.76951385 25.92065186 215.70171692 25.9289502 214.6015625 25.9375 C212.93907974 25.94317993 212.93907974 25.94317993 211.24301147 25.94897461 C206.5096178 25.96529508 201.77631102 25.99340852 197.04296875 26.02050781 C193.58333742 26.03862606 190.12372024 26.05070033 186.6640625 26.0625 C185.06843979 26.07494751 185.06843979 26.07494751 183.44058228 26.08764648 C178.1773174 26.10495621 173.18432746 25.92815448 168 25 C167.67 25.66 167.34 26.32 167 27 C165.68 27 164.36 27 163 27 C162.01 27.33 161.02 27.66 160 28 C159.38125 27.67 158.7625 27.34 158.125 27 C156.01701833 25.74712357 156.01701833 25.74712357 153.625 26.5 C150.24493917 27.14382111 148.15292971 26.2465071 145 25 C145 25.66 145 26.32 145 27 C143.906875 26.814375 142.81375 26.62875 141.6875 26.4375 C138.06375867 25.7421932 138.06375867 25.7421932 135 27 C133.33106423 26.67822011 131.6647926 26.34257042 130 26 C127.54038615 25.90795118 125.07852224 25.86933072 122.6171875 25.8671875 C121.92110382 25.86623077 121.22502014 25.86527405 120.50784302 25.86428833 C119.04380197 25.86361069 117.57975785 25.86543581 116.11572266 25.86962891 C113.87525718 25.87499938 111.63499068 25.86966153 109.39453125 25.86328125 C107.96874956 25.86394179 106.54296799 25.86522245 105.1171875 25.8671875 C103.17755127 25.86887939 103.17755127 25.86887939 101.19873047 25.87060547 C97.97956174 25.85257679 97.97956174 25.85257679 95 27 C93.33333333 26.66666667 91.66666667 26.33333333 90 26 C88.515 26.495 88.515 26.495 87 27 C85.4573675 26.76003495 83.91512233 26.51729939 82.375 26.26171875 C72.95244162 25.07617777 72.95244162 25.07617777 64 27 C63.154375 26.85433594 62.30875 26.70867188 61.4375 26.55859375 C57.23739764 25.87607712 53.24208137 25.97886174 49 26.0625 C33.77130024 26.18591638 21.77523654 24.95661016 10.25390625 14.296875 C0 3.847487 0 3.847487 0 0 Z " fill="#1E4495" transform="translate(324,836)"/>
<path d="M0 0 C4.43936951 1.35647402 6.4156882 3.16808939 9 7 C11.21747754 11.35575945 11.34867077 15.51699027 11.3125 20.3125 C11.30512817 21.45090332 11.30512817 21.45090332 11.29760742 22.61230469 C11.15126236 29.57983065 10.19006205 34.27722016 5.6875 39.875 C0.47824347 43.99394702 -4.82779318 44.29197178 -11.26719666 44.25396729 C-12.08409472 44.25708727 -12.90099278 44.26020725 -13.74264532 44.26342177 C-16.47165206 44.27137973 -19.20043508 44.2650867 -21.92944336 44.25878906 C-23.88939036 44.26149992 -25.84933634 44.26506139 -27.8092804 44.26940918 C-33.12743274 44.27852473 -38.44550745 44.27499218 -43.76366115 44.26865101 C-49.33109543 44.26358601 -54.89852309 44.26828392 -60.46595764 44.27142334 C-69.81642855 44.27506182 -79.16686787 44.27026728 -88.51733398 44.26074219 C-99.32368597 44.24986106 -110.12996246 44.25338123 -120.93631262 44.264395 C-130.21715215 44.27347501 -139.49796897 44.27474955 -148.77881151 44.26951766 C-154.32058579 44.26640149 -159.86232461 44.26597889 -165.4040966 44.27259064 C-170.61533956 44.27837371 -175.82648534 44.27434952 -181.03771782 44.26280212 C-182.9488865 44.26016056 -184.86006338 44.26091203 -186.77122879 44.26532745 C-189.38286901 44.27080426 -191.99419915 44.26392284 -194.6058197 44.25396729 C-195.35952675 44.25842873 -196.1132338 44.26289017 -196.88978046 44.26748681 C-201.66221864 44.23227666 -205.55191239 43.62400117 -210 42 C-210.33 41.34 -210.66 40.68 -211 40 C-210.01877419 40.16210339 -209.03754837 40.32420677 -208.02658844 40.49122238 C-203.87835937 41.08012078 -199.75842842 41.14523136 -195.57458496 41.14044189 C-194.3418309 41.14489858 -194.3418309 41.14489858 -193.08417273 41.1494453 C-190.34451613 41.15808132 -187.60490348 41.15963617 -184.86523438 41.16113281 C-182.89528816 41.16576441 -180.92534285 41.17078953 -178.95539856 41.17617798 C-173.61460464 41.18926665 -168.27382327 41.19573944 -162.93301582 41.20018864 C-159.5952907 41.20312365 -156.25756898 41.20722915 -152.91984558 41.21169281 C-142.4733979 41.22535527 -132.02695803 41.23502939 -121.58050203 41.2388947 C-109.52678482 41.24337962 -97.47318077 41.26095292 -85.41949797 41.2898953 C-76.09617998 41.31150438 -66.77289387 41.32159849 -57.44955111 41.32293582 C-51.88316777 41.32398393 -46.316891 41.32989373 -40.75053406 41.34775543 C-35.51709606 41.36422379 -30.28384491 41.36639758 -25.05039024 41.35761642 C-23.1311512 41.35684553 -21.21190215 41.36119568 -19.29268837 41.37107468 C-16.67004141 41.38378196 -14.04805756 41.3779242 -11.42541504 41.36749268 C-10.29004122 41.37957728 -10.29004122 41.37957728 -9.13173056 41.39190602 C-3.95252169 41.34382065 -0.50723355 40.37850842 4 38 C9.41720269 31.79241856 9.07488803 24.89652708 9 17 C8.47245311 11.18075196 7.15203237 7.27785153 3 3 C2.4225 2.401875 1.845 1.80375 1.25 1.1875 C0.63125 0.5996875 0.63125 0.5996875 0 0 Z " fill="#2659C1" transform="translate(555,650)"/>
<path d="M0 0 C1.88037109 1.38623047 1.88037109 1.38623047 3.7734375 3.1171875 C4.81685303 4.06392334 4.81685303 4.06392334 5.88134766 5.02978516 C6.58050293 5.67995605 7.2796582 6.33012695 8 7 C8.64372559 7.59474121 9.28745117 8.18948242 9.95068359 8.80224609 C11.89258924 10.60902809 13.82257698 12.42778305 15.75 14.25 C21.49082101 19.65489 27.26513105 25.01719522 33.0859375 30.3359375 C40.86865491 37.4509687 48.60283807 44.61842674 56.3125 51.8125 C56.92673828 52.38548828 57.54097656 52.95847656 58.17382812 53.54882812 C61.60417266 56.75213848 65.0251344 59.96503996 68.4375 63.1875 C69.53324341 64.22040161 69.53324341 64.22040161 70.65112305 65.27416992 C72.06852999 66.61088409 73.48412367 67.94952416 74.89770508 69.2902832 C75.53603271 69.89187256 76.17436035 70.49346191 76.83203125 71.11328125 C77.39639893 71.64735596 77.9607666 72.18143066 78.54223633 72.73168945 C79.99311243 74.10059586 79.99311243 74.10059586 82 75 C82 75.66 82 76.32 82 77 C82.57234375 77.24363281 83.1446875 77.48726563 83.734375 77.73828125 C86.40433538 79.22517298 88.13829007 80.98083908 90.25 83.1875 C93.62405602 86.63823911 97.0737562 89.87099646 100.73046875 93.015625 C105.2969985 97.00839112 109.7170176 101.16499297 114.16015625 105.29394531 C116.11270856 107.10451266 118.07176647 108.90787546 120.03125 110.7109375 C121.37516307 111.95294858 122.7189162 113.19513274 124.0625 114.4375 C124.69357666 115.01636963 125.32465332 115.59523926 125.97485352 116.19165039 C129.29463912 119.27146228 132.27296464 122.36168599 135 126 C131.81440048 124.60366893 129.76056155 122.95442507 127.375 120.4375 C124.95478041 117.85984611 124.95478041 117.85984611 122 116 C122 115.34 122 114.68 122 114 C121.41734375 113.74605469 120.8346875 113.49210937 120.234375 113.23046875 C117.75811967 111.86679667 116.19479374 110.35774797 114.25 108.3125 C109.29865805 103.23231272 104.02882088 98.62613085 98.5 94.1875 C97.675 93.465625 96.85 92.74375 96 92 C96 91.34 96 90.68 96 90 C95.42765625 89.75636719 94.8553125 89.51273437 94.265625 89.26171875 C91.59566462 87.77482702 89.86170993 86.01916092 87.75 83.8125 C82.7845306 78.73269413 77.62716837 74.02510895 72 69.6875 C71.34 69.130625 70.68 68.57375 70 68 C70 67.34 70 66.68 70 66 C69.42765625 65.75636719 68.8553125 65.51273437 68.265625 65.26171875 C65.59566462 63.77482702 63.86170993 62.01916092 61.75 59.8125 C58.26695843 56.24380987 54.68118787 52.9241809 50.8984375 49.6796875 C48.44277086 47.50697834 46.16839496 45.18123328 43.87304688 42.84179688 C42.07300825 41.07179017 40.21925344 39.41808264 38.3046875 37.7734375 C33.96817451 34.00316345 29.79119501 30.08152719 25.625 26.125 C20.18654985 20.98399737 14.74778282 15.8550374 9.1328125 10.90625 C7.67946816 9.60729022 6.25818201 8.27176842 4.8671875 6.90625 C1.59203463 3.76808071 -0.1241431 2.14845032 -4.6875 1.375 C-8.09599459 2.01811219 -10.2099777 2.97089287 -13 5 C-13.33 4.01 -13.66 3.02 -14 2 C-9.28397202 -0.94751749 -5.2831883 -1.96598339 0 0 Z " fill="#214DAB" transform="translate(555,365)"/>
<path d="M0 0 C0 3 0 3 -1.62585735 4.99500084 C-2.39366937 5.76004747 -3.16148138 6.52509411 -3.95256042 7.31332397 C-4.8288208 8.19370834 -5.70508118 9.07409271 -6.6078949 9.9811554 C-7.59156794 10.95420995 -8.57538319 11.92712076 -9.55932617 12.89990234 C-10.58632734 13.92605758 -11.61266893 14.95287331 -12.63839722 15.9803009 C-15.43155127 18.77431822 -18.23388299 21.55896592 -21.03789687 24.34207869 C-23.97041888 27.25586496 -26.8944651 30.17813128 -29.81941223 33.09951782 C-35.36777837 38.63854527 -40.9237461 44.16988278 -46.48246318 49.6985203 C-52.78862759 55.97128556 -59.08639881 62.25244789 -65.38341939 68.53439021 C-76.15388232 79.27877465 -86.93057326 90.01687863 -97.71446228 100.74778748 C-98.60482178 101.63381149 -99.49518127 102.51983551 -100.41252136 103.43270874 C-101.1822185 104.19850943 -101.95191565 104.96431011 -102.74493694 105.75331688 C-105.16639961 108.16578126 -107.58367148 110.58239398 -110 113 C-122 125 -122 125 -134 137 C-134.66 136.67 -135.32 136.34 -136 136 C-91.12 91.12 -46.24 46.24 0 0 Z " fill="#0D34C2" transform="translate(593,304)"/>
<path d="M0 0 C3.55171307 2.65766116 6.14264603 5.29824519 8.75 8.875 C14.70676963 16.46345511 21.65444702 20.74561529 31 23 C35.24444544 23.4191561 39.46152249 23.41745687 43.72412109 23.40063477 C45.59154968 23.41110336 45.59154968 23.41110336 47.4967041 23.42178345 C50.18633784 23.43486748 52.87534992 23.44267912 55.56495285 23.44125557 C59.81763358 23.43921053 64.07005107 23.45886073 68.32266235 23.48143005 C76.57346742 23.52226188 84.82425102 23.54098787 93.07513428 23.55760193 C103.59932658 23.58001552 114.12345762 23.61345106 124.64754927 23.66480106 C128.875865 23.68472329 133.10404115 23.69430254 137.33240199 23.69575322 C140.57237812 23.69914399 143.8122997 23.71504148 147.05224609 23.72875977 C148.22421539 23.72620682 149.39618469 23.72365387 150.60366821 23.72102356 C151.67179749 23.72785156 152.73992676 23.73467957 153.84042358 23.74171448 C155.23461549 23.74416593 155.23461549 23.74416593 156.65697289 23.74666691 C159 24 159 24 162 26 C162.33 26.66 162.66 27.32 163 28 C160.61435923 27.42415568 158.33317216 26.77772405 156 26 C155.236875 26.185625 154.47375 26.37125 153.6875 26.5625 C150.29156759 27.11532621 148.15872759 26.24879928 145 25 C145 25.66 145 26.32 145 27 C143.906875 26.814375 142.81375 26.62875 141.6875 26.4375 C138.06375867 25.7421932 138.06375867 25.7421932 135 27 C133.33106423 26.67822011 131.6647926 26.34257042 130 26 C127.54038615 25.90795118 125.07852224 25.86933072 122.6171875 25.8671875 C121.92110382 25.86623077 121.22502014 25.86527405 120.50784302 25.86428833 C119.04380197 25.86361069 117.57975785 25.86543581 116.11572266 25.86962891 C113.87525718 25.87499938 111.63499068 25.86966153 109.39453125 25.86328125 C107.96874956 25.86394179 106.54296799 25.86522245 105.1171875 25.8671875 C103.17755127 25.86887939 103.17755127 25.86887939 101.19873047 25.87060547 C97.97956174 25.85257679 97.97956174 25.85257679 95 27 C93.33333333 26.66666667 91.66666667 26.33333333 90 26 C88.515 26.495 88.515 26.495 87 27 C85.4573675 26.76003495 83.91512233 26.51729939 82.375 26.26171875 C72.95244162 25.07617777 72.95244162 25.07617777 64 27 C63.154375 26.85433594 62.30875 26.70867188 61.4375 26.55859375 C57.23739764 25.87607712 53.24208137 25.97886174 49 26.0625 C33.77130024 26.18591638 21.77523654 24.95661016 10.25390625 14.296875 C0 3.847487 0 3.847487 0 0 Z " fill="#254EA5" transform="translate(324,836)"/>
<path d="M0 0 C12.54165634 -0.03069261 25.08331145 -0.05100934 37.625 -0.0625 C38.55270958 -0.06335602 39.48041916 -0.06421204 40.43624115 -0.06509399 C72.30309737 -0.09106585 104.14201811 0.20003999 136 1 C136 1.33 136 1.66 136 2 C134.98698318 1.99777939 133.97396637 1.99555878 132.93025208 1.99327087 C123.24134893 1.97273126 113.55245037 1.95788284 103.86353016 1.94818783 C98.88598006 1.94303555 93.90844795 1.93608287 88.9309082 1.92456055 C83.16878156 1.91153523 77.40667245 1.90407561 71.64453125 1.90234375 C70.70323175 1.90200575 69.76193226 1.90166775 68.79210854 1.9013195 C55.88334696 1.90480482 43.00706147 2.08696978 30.11213684 2.72984314 C19.95966584 3.19896041 10.06028945 2.33037707 0 1 C0 0.67 0 0.34 0 0 Z " fill="#3060BE" transform="translate(374,484)"/>
<path d="M0 0 C4.43936951 1.35647402 6.4156882 3.16808939 9 7 C11.21747754 11.35575945 11.34867077 15.51699027 11.3125 20.3125 C11.30512817 21.45090332 11.30512817 21.45090332 11.29760742 22.61230469 C11.14977068 29.65084979 10.21903646 34.39263216 5.5 39.9375 C2.06553413 42.77093434 -0.41976715 43.12495118 -4.72660828 43.12025452 C-5.69835999 43.12162918 -6.67011169 43.12300385 -7.67131042 43.12442017 C-9.26813408 43.11902725 -9.26813408 43.11902725 -10.8972168 43.11352539 C-12.01931549 43.11367142 -13.14141418 43.11381744 -14.29751587 43.1139679 C-18.01476968 43.11326998 -21.73197367 43.10548317 -25.44921875 43.09765625 C-28.0232592 43.09579164 -30.59730001 43.09436794 -33.17134094 43.09336853 C-39.25925528 43.08993757 -45.34714899 43.08205218 -51.43505555 43.07201904 C-58.36606694 43.06084421 -65.29707917 43.055344 -72.22809732 43.05032361 C-86.48540785 43.03986921 -100.74270329 43.0222783 -115 43 C-115 42.67 -115 42.34 -115 42 C-114.42923453 41.99761165 -113.85846907 41.99522329 -113.27040768 41.99276257 C-99.36472639 41.93355548 -85.4592197 41.85778141 -71.55372524 41.76428509 C-64.82904569 41.71937217 -58.10441856 41.67994727 -51.37963867 41.65356445 C-44.88914151 41.62754426 -38.39887801 41.58715022 -31.90852547 41.53681374 C-29.43306447 41.52013647 -26.95756306 41.50862757 -24.48205376 41.50238609 C-21.01309625 41.49275473 -17.54473771 41.46470539 -14.07592773 41.43237305 C-12.54275406 41.43452568 -12.54275406 41.43452568 -10.97860718 41.4367218 C-5.22457577 41.36093998 -1.06280835 40.8144364 4 38 C9.41720269 31.79241856 9.07488803 24.89652708 9 17 C8.47245311 11.18075196 7.15203237 7.27785153 3 3 C2.4225 2.401875 1.845 1.80375 1.25 1.1875 C0.8375 0.795625 0.425 0.40375 0 0 Z " fill="#1D46A1" transform="translate(555,650)"/>
<path d="M0 0 C0.33 0 0.66 0 1 0 C0.22838547 8.52036331 -2.00586038 16.73708204 -4.06420898 25.01855469 C-4.55218512 26.98966145 -5.02866857 28.963289 -5.50390625 30.9375 C-5.79080322 32.10152344 -6.0777002 33.26554687 -6.37329102 34.46484375 C-6.95122285 37.72485659 -7.01503848 40.69773701 -6.95185852 43.99768066 C-7.03146102 47.30853925 -7.84385726 50.37542902 -8.64453125 53.578125 C-8.81498459 54.27081482 -8.98543793 54.96350464 -9.16105652 55.67718506 C-9.70288029 57.87038334 -10.25739989 60.06012887 -10.8125 62.25 C-11.1733756 63.70161198 -11.53340775 65.15343391 -11.89257812 66.60546875 C-12.75633725 70.08891742 -13.6301408 73.56973294 -14.50836182 77.04956055 C-15.26404478 80.04752514 -16.01269115 83.04724185 -16.76171875 86.046875 C-17.17447917 87.69791667 -17.58723958 89.34895833 -18 91 C-21.22934915 78.95535812 -15.29659884 63.59592416 -12.55859375 51.77734375 C-12.22739526 50.34057488 -11.89634842 48.90377105 -11.56544495 47.4669342 C-10.87707431 44.48058167 -10.18688563 41.494657 -9.49536133 38.5090332 C-8.60862125 34.67989104 -7.72653908 30.84969308 -6.84577847 27.01917171 C-6.16562715 24.0634364 -5.48305191 21.10826503 -4.7997303 18.15326118 C-4.47323614 16.74000937 -4.14750104 15.32658197 -3.82253838 13.91297722 C-3.37040906 11.94784391 -2.91466427 9.98354348 -2.45874023 8.01928711 C-2.20051987 6.90218857 -1.9422995 5.78509003 -1.67625427 4.63414001 C-1 2 -1 2 0 0 Z " fill="#3368CF" transform="translate(193,373)"/>
<path d="M0 0 C3.02437591 1.36190453 5.19124265 2.91288207 7.58203125 5.203125 C8.25903076 5.84668945 8.93603027 6.49025391 9.63354492 7.15332031 C10.71212769 8.19117676 10.71212769 8.19117676 11.8125 9.25 C13.3461474 10.70855077 14.8800055 12.16688003 16.4140625 13.625 C17.18395508 14.35976563 17.95384766 15.09453125 18.74707031 15.8515625 C27.40337159 24.1063795 36.13344412 32.21394287 45.27172852 39.93432617 C48.91435276 43.02416021 52.35980019 46.22132956 55.66796875 49.671875 C57.10692696 51.17038183 57.10692696 51.17038183 59.4375 52.8125 C59.953125 53.204375 60.46875 53.59625 61 54 C61 54.66 61 55.32 61 56 C61.66 56 62.32 56 63 56 C66.58265003 61.37397504 67.71869985 64.53170139 67 71 C65.15551036 76.02111068 61.89181823 80.33583688 58 84 C57.34 84 56.68 84 56 84 C57.32700765 81.01745368 58.76673725 79.16474815 61.125 76.9375 C64.49088366 73.06465608 64.94633454 69.74548999 64.63671875 64.6953125 C63.49771936 59.87378132 60.54372652 57.2847376 57 54 C55.35333945 52.31330719 53.70754488 50.62576863 52.0625 48.9375 C48.49509398 45.4077589 44.85028767 42.02557126 41.04296875 38.7578125 C31.15829033 30.25283107 21.64756074 21.28973446 12.12890625 12.37890625 C11.49178711 11.78368164 10.85466797 11.18845703 10.19824219 10.57519531 C8.96133681 9.41899945 7.72624477 8.26085995 6.49316406 7.10058594 C3.48855606 4.21904197 3.48855606 4.21904197 0 2 C0 1.34 0 0.68 0 0 Z " fill="#224EAF" transform="translate(690,491)"/>
<path d="M0 0 C1.38761401 4.16284204 -0.0738978 6.00602845 -1.8828125 9.8359375 C-3.06103585 12.11823029 -4.218288 14.13730109 -6 16 C-6.66 16 -7.32 16 -8 16 C-8.495 17.485 -8.495 17.485 -9 19 C-15.76934792 24.41764539 -23.71441561 26.73948991 -31.9375 29 C-44.41513149 32.44210524 -54.61665403 36.91240419 -64 46 C-64 43 -64 43 -62.671875 41.38671875 C-52.41794918 32.32074775 -40.33683594 28.60655908 -27.359375 25.078125 C-17.46486294 22.23111917 -9.86240588 17.63750926 -4 9 C-2.4889463 6.06236145 -1.18786538 3.08146255 0 0 Z " fill="#2755B4" transform="translate(578,518)"/>
<path d="M0 0 C6.18732755 5.11644393 11.83734871 10.68832048 17.5 16.375 C18.41136719 17.2825 19.32273437 18.19 20.26171875 19.125 C24.74118605 23.61093118 29.05921365 28.15302588 33.18603516 32.96337891 C36.91746689 37.15282756 40.95223029 41.05412839 44.9375 45 C45.81212891 45.87011719 46.68675781 46.74023438 47.58789062 47.63671875 C49.72297449 49.76013549 51.86037205 51.88116378 54 54 C53.505 54.99 53.505 54.99 53 56 C51.91972534 54.91755005 51.91972534 54.91755005 50.81762695 53.81323242 C48.19461476 51.19431123 45.55854238 48.58947682 42.91796875 45.98828125 C41.49522513 44.579322 40.07249573 43.17034802 38.65063477 41.76049805 C37.66800215 40.78803116 36.68359867 39.81735068 35.69750977 38.84838867 C34.2663675 37.44137874 32.84204942 36.02743802 31.41796875 34.61328125 C30.14602661 33.35704956 30.14602661 33.35704956 28.84838867 32.07543945 C27 30 27 30 27 28 C26.360625 27.731875 25.72125 27.46375 25.0625 27.1875 C23 26 23 26 22 23 C21.34 23 20.68 23 20 23 C18.73046875 21.70703125 18.73046875 21.70703125 17.1875 19.8125 C13.16389279 15.04409741 8.75400395 10.72201382 4.26831055 6.39379883 C2.80941666 4.96517864 1.4000323 3.48635008 0 2 C0 1.34 0 0.68 0 0 Z " fill="#2452B3" transform="translate(630,522)"/>
<path d="M0 0 C0.33 0 0.66 0 1 0 C1.13535156 0.63164063 1.27070313 1.26328125 1.41015625 1.9140625 C4.87497447 16.31276815 11.10172731 27.96947272 23.625 36.25 C29.7068788 39.70390648 36.24989605 41.33646727 43 43 C43.88171875 43.226875 44.7634375 43.45375 45.671875 43.6875 C47.44415508 44.13999704 49.22137357 44.57312966 51 45 C51 45.33 51 45.66 51 46 C38.55277243 45.50995167 28.30463096 41.96516722 18 35 C17.113125 34.401875 16.22625 33.80375 15.3125 33.1875 C7.61960297 25.91043524 1.11103688 16.01116067 -0.37109375 5.32421875 C-0.375 3.125 -0.375 3.125 0 0 Z " fill="#254FA9" transform="translate(503,604)"/>
<path d="M0 0 C0.99 0 1.98 0 3 0 C3 0.66 3 1.32 3 2 C1.4609375 3.48046875 1.4609375 3.48046875 -0.625 5.1875 C-3.36208188 7.54402504 -6.06087448 9.89242328 -8.5625 12.5 C-9.05878906 13.0053125 -9.55507813 13.510625 -10.06640625 14.03125 C-11.68871402 17.4523509 -11.09316767 19.40658059 -10 23 C-7.59123502 26.07402885 -4.80507329 28.67021855 -1.9375 31.3125 C-0.44261094 32.72102334 1.04849436 34.13357705 2.53515625 35.55078125 C3.199104 36.16606689 3.86305176 36.78135254 4.54711914 37.4152832 C6 39 6 39 6 41 C5.34 41 4.68 41 4 41 C4 40.34 4 39.68 4 39 C3.34 39 2.68 39 2 39 C0.64613064 37.34997172 -0.68678142 35.6825613 -2 34 C-2.66 33.67 -3.32 33.34 -4 33 C-4 32.34 -4 31.68 -4 31 C-4.99 30.67 -5.98 30.34 -7 30 C-8.53515625 28.40625 -8.53515625 28.40625 -10.0625 26.5 C-12.17721767 23.81893599 -12.17721767 23.81893599 -15 22 C-13.9104593 16.18911627 -11.70084372 13.15058732 -7.67578125 8.8671875 C-5.82406097 6.93039614 -5.82406097 6.93039614 -4.25 4 C-3.8375 3.34 -3.425 2.68 -3 2 C-2.01 2 -1.02 2 0 2 C0 1.34 0 0.68 0 0 Z " fill="#2451B2" transform="translate(526,383)"/>
<path d="M0 0 C0.66 0.33 1.32 0.66 2 1 C1.34 1.99 0.68 2.98 0 4 C-0.66 4 -1.32 4 -2 4 C-2.33451172 4.81984375 -2.33451172 4.81984375 -2.67578125 5.65625 C-6.63738737 12.66794225 -14.58022613 20.00355286 -22 23 C-26.29485546 23.43676496 -29.32307542 23.35323173 -33 21 C-30.02870048 20.00956683 -28.76391007 20.04377725 -25.75 20.3125 C-21.78316533 20.39662537 -20.01393205 19.64205762 -17.0625 17 C-16.51722656 16.443125 -15.97195313 15.88625 -15.41015625 15.3125 C-14 14 -14 14 -12 14 C-11.66355469 13.17242188 -11.66355469 13.17242188 -11.3203125 12.328125 C-9.59614817 9.28788256 -7.37484178 7.18574327 -4.875 4.75 C-3.96492187 3.85796875 -3.05484375 2.9659375 -2.1171875 2.046875 C-1.41851563 1.37140625 -0.71984375 0.6959375 0 0 Z " fill="#295ABF" transform="translate(739,580)"/>
<path d="M0 0 C7.12927277 1.27659685 13.97888609 3.04334044 20.875 5.25 C21.83374023 5.55647461 22.79248047 5.86294922 23.78027344 6.17871094 C42.13427205 12.20140808 42.13427205 12.20140808 46 18 C42.45664791 16.62354399 38.99373717 15.10393765 35.53076172 13.53735352 C22.65322479 7.38431904 22.65322479 7.38431904 8.84375 5.0234375 C4.94056105 4.99126836 3.00956204 3.36465589 0 1 C0 0.67 0 0.34 0 0 Z " fill="#2655B5" transform="translate(341,565)"/>
<path d="M0 0 C2.93879484 1.35236577 5.29232911 2.89942659 7.75 5 C8.67039062 5.7734375 8.67039062 5.7734375 9.609375 6.5625 C11 8 11 8 11 10 C11.66 10 12.32 10 13 10 C16.58265003 15.37397504 17.71869985 18.53170139 17 25 C15.15551036 30.02111068 11.89181823 34.33583688 8 38 C7.34 38 6.68 38 6 38 C7.32700765 35.01745368 8.76673725 33.16474815 11.125 30.9375 C14.48806868 27.06789505 14.93832284 23.75241657 14.6484375 18.70703125 C13.50328984 13.9263847 10.53373009 11.24038956 7 8 C5.68369384 6.69131723 4.37098831 5.37899946 3.0625 4.0625 C2.47597656 3.49660156 1.88945313 2.93070313 1.28515625 2.34765625 C0 1 0 1 0 0 Z " fill="#2958BA" transform="translate(740,537)"/>
<path d="M0 0 C0.66 0.33 1.32 0.66 2 1 C-28.58729311 18 -28.58729311 18 -33 18 C-30.31635111 14.82127361 -26.87112391 13.21030624 -23.21484375 11.390625 C-22.55795059 11.0595575 -21.90105743 10.72848999 -21.22425842 10.38739014 C-19.83973884 9.69192699 -18.45366801 8.99954453 -17.06616211 8.31005859 C-14.93656267 7.24953322 -12.81487423 6.17424588 -10.69335938 5.09765625 C-9.34680672 4.42357439 -7.99981613 3.75036647 -6.65234375 3.078125 C-6.01586411 2.75426819 -5.37938446 2.43041138 -4.72361755 2.09674072 C-3.17792114 1.33616434 -1.59140513 0.65960862 0 0 Z " fill="#3E7FF8" transform="translate(441,181)"/>
<path d="M0 0 C0.66 0.33 1.32 0.66 2 1 C-4.86281315 5.40834821 -11.94693991 8.94225883 -19.34765625 12.3203125 C-23.95936893 14.4254237 -28.4854389 16.69491822 -33 19 C-31.78141253 15.34423758 -30.37297196 14.88469264 -27.05909729 13.19500732 C-26.37057175 12.85737366 -25.6820462 12.51973999 -24.97265625 12.171875 C-24.26854111 11.81861145 -23.56442596 11.4653479 -22.838974 11.10137939 C-21.3492466 10.35700555 -19.85702491 9.61760594 -18.36254883 8.8828125 C-16.06869881 7.75305302 -13.78506716 6.60439897 -11.50195312 5.453125 C-10.05525856 4.73322626 -8.6080108 4.01443793 -7.16015625 3.296875 C-6.47365494 2.95114441 -5.78715363 2.60541382 -5.07984924 2.24920654 C-3.41532335 1.43762506 -1.71022514 0.71024004 0 0 Z " fill="#3E7FF6" transform="translate(489,157)"/>
<path d="M0 0 C4.04355869 2.96239327 6.9883995 6.3061857 9.9375 10.3125 C10.8071082 11.46986769 11.67819496 12.62612596 12.55078125 13.78125 C12.9679541 14.33425781 13.38512695 14.88726563 13.81494141 15.45703125 C16.08673348 18.41494759 18.53120251 21.20636073 21 24 C20.67 24.66 20.34 25.32 20 26 C14.05942461 19.53687399 8.37997347 12.93797484 3 6 C2.43023437 5.28585937 1.86046875 4.57171875 1.2734375 3.8359375 C0 2 0 2 0 0 Z " fill="#2851AB" transform="translate(180,660)"/>
<path d="M0 0 C3.27479244 3.16915398 6.34143965 6.47326394 9.375 9.875 C13.11710844 14.06214982 16.97178663 18.08835872 21 22 C16.51181764 22 14.71182589 19.51674687 11.49609375 16.5703125 C0 4.73239437 0 4.73239437 0 0 Z " fill="#2756B8" transform="translate(274,518)"/>
<path d="M0 0 C0.66 0 1.32 0 2 0 C2.33 0.99 2.66 1.98 3 3 C-1.62 7.62 -6.24 12.24 -11 17 C-11 13.06830895 -9.60580385 11.83572772 -7 9 C-6.34 9 -5.68 9 -5 9 C-4.5978125 7.88625 -4.5978125 7.88625 -4.1875 6.75 C-3.04723249 4.10938051 -1.90619694 2.14447156 0 0 Z " fill="#316ADD" transform="translate(744,575)"/>
<path d="M0 0 C-4.46949778 1.83364012 -8.10924166 2.16401306 -12.8515625 1.97265625 C-14.99273852 1.90609506 -14.99273852 1.90609506 -16.9453125 2.5546875 C-19.62336697 3.13510235 -21.5878369 2.65798385 -24.25 2.0625 C-25.14203125 1.86785156 -26.0340625 1.67320312 -26.953125 1.47265625 C-27.62859375 1.31667969 -28.3040625 1.16070312 -29 1 C-29 0.67 -29 0.34 -29 0 C-24.5420032 -0.19616609 -20.08359465 -0.38047068 -15.625 -0.5625 C-14.35398437 -0.61857422 -13.08296875 -0.67464844 -11.7734375 -0.73242188 C-10.56171875 -0.78076172 -9.35 -0.82910156 -8.1015625 -0.87890625 C-6.98088379 -0.9260376 -5.86020508 -0.97316895 -4.70556641 -1.02172852 C-2 -1 -2 -1 0 0 Z " fill="#2551A8" transform="translate(365,493)"/>
<path d="M0 0 C2.58594756 1.76958983 4.81102438 3.76314054 7 6 C6.01 6.33 5.02 6.66 4 7 C2.9790625 5.7625 2.9790625 5.7625 1.9375 4.5 C-0.8123163 1.7090103 -0.8123163 1.7090103 -4.5 1.5 C-8.09649489 2.01378498 -10.08792925 2.88213036 -13 5 C-13.33 4.01 -13.66 3.02 -14 2 C-9.28296876 -0.94814452 -5.29549485 -1.89052215 0 0 Z " fill="#2554B5" transform="translate(555,365)"/>
<path d="M0 0 C2 3 2 3 1.93359375 5.0859375 C0.77498879 10.43194148 -0.49697414 13.54418945 -5 17 C-7.8125 18.3125 -7.8125 18.3125 -10 19 C-10.66 18.34 -11.32 17.68 -12 17 C-10.39125 16.443125 -10.39125 16.443125 -8.75 15.875 C-4.69030122 14.10812705 -2.97651985 12.02905969 -1 8 C-0.42554275 5.2981036 -0.19098858 2.76933437 0 0 Z " fill="#2655B4" transform="translate(564,674)"/>
<path d="M0 0 C0 0.99 0 1.98 0 3 C-3.33333333 6 -3.33333333 6 -6 6 C-6.226875 6.556875 -6.45375 7.11375 -6.6875 7.6875 C-8.35896766 10.63246684 -10.55276352 12.68156544 -13 15 C-11.18565662 9.01266684 -7.24729459 4.51448114 -2.125 1.0625 C-1.42375 0.711875 -0.7225 0.36125 0 0 Z " fill="#3F7FF6" transform="translate(225,289)"/>
<path d="M0 0 C0.33 0 0.66 0 1 0 C1 7.64317137 -1.21307181 11.31395313 -6.08984375 17.12890625 C-8 19 -8 19 -10 19 C-8.68063816 16.08218054 -7.22290887 14.03959613 -5 11.75 C-1.69104633 8.02944478 -0.85275464 4.86070144 0 0 Z " fill="#2552AF" transform="translate(756,556)"/>
<path d="M0 0 C1.77049689 -0.05410687 3.54146849 -0.09284119 5.3125 -0.125 C6.29863281 -0.14820313 7.28476562 -0.17140625 8.30078125 -0.1953125 C11 0 11 0 14 2 C14.33 2.66 14.66 3.32 15 4 C12.61435923 3.42415568 10.33317216 2.77772405 8 2 C7.175 2.20625 6.35 2.4125 5.5 2.625 C4.2625 2.810625 4.2625 2.810625 3 3 C1.34375 1.5234375 1.34375 1.5234375 0 0 Z " fill="#2D5CB9" transform="translate(472,860)"/>
<path d="M0 0 C0.66 0.33 1.32 0.66 2 1 C-2.56089058 3.9286937 -7.09477665 6.67001891 -12 9 C-12.66 8.34 -13.32 7.68 -14 7 C-11.71296692 5.80274117 -9.42115138 4.61702982 -7.125 3.4375 C-6.14853516 2.92413086 -6.14853516 2.92413086 -5.15234375 2.40039062 C-3.46470143 1.53917109 -1.73420407 0.76313297 0 0 Z " fill="#3E80F9" transform="translate(373,215)"/>
<path d="M0 0 C0.90550946 3.01150495 1.06723758 5.43770987 0.75 8.5625 C0.68296875 9.32691406 0.6159375 10.09132813 0.546875 10.87890625 C-0.09694852 13.37602176 -1.05228884 14.36120002 -3 16 C-2.52013969 10.43109483 -1.70084819 5.32932432 0 0 Z " fill="#3F7EF3" transform="translate(208,314)"/>
<path d="M0 0 C1.47066513 2.33921011 2.08971187 3.48236249 1.609375 6.25390625 C1.32578125 7.01574219 1.0421875 7.77757812 0.75 8.5625 C0.47671875 9.32691406 0.2034375 10.09132813 -0.078125 10.87890625 C-1 13 -1 13 -3 16 C-2.57910004 10.39538469 -2.08386889 5.27913453 0 0 Z " fill="#3C7DF6" transform="translate(189,396)"/>
<path d="M0 0 C1.19005859 3.57017577 0.75814719 4.24566904 -0.75 7.5625 C-1.09546875 8.34753906 -1.4409375 9.13257813 -1.796875 9.94140625 C-3 12 -3 12 -6 14 C-4.16508812 9.25981099 -2.08058541 4.63586749 0 0 Z " fill="#2453B1" transform="translate(578,518)"/>
<path d="M0 0 C3.55700273 2.66775205 6.521673 5.2825095 9 9 C8.67 9.99 8.34 10.98 8 12 C6.66081194 10.37982158 5.3288031 8.75370657 4 7.125 C3.2575 6.22007812 2.515 5.31515625 1.75 4.3828125 C0 2 0 2 0 0 Z " fill="#2B57B4" transform="translate(180,660)"/>
<path d="M0 0 C0.66 0.33 1.32 0.66 2 1 C0.76055724 1.86941494 -0.49207059 2.72005457 -1.75 3.5625 C-2.44609375 4.03816406 -3.1421875 4.51382812 -3.859375 5.00390625 C-6 6 -6 6 -8.265625 5.65234375 C-8.83796875 5.43707031 -9.4103125 5.22179687 -10 5 C-8.38007835 4.13624104 -6.75388139 3.28424146 -5.125 2.4375 C-4.22007812 1.96183594 -3.31515625 1.48617188 -2.3828125 0.99609375 C-1.20332031 0.50302734 -1.20332031 0.50302734 0 0 Z " fill="#3D7EF7" transform="translate(261,271)"/>
<path d="M0 0 C0.99 0.33 1.98 0.66 3 1 C2.67 2.98 2.34 4.96 2 7 C0.5393715 4.35261084 0 3.10551666 0 0 Z M0 7 C0.33 8.32 0.66 9.64 1 11 C0.01 11.33 -0.98 11.66 -2 12 C-1.125 8.125 -1.125 8.125 0 7 Z " fill="#275DD3" transform="translate(596,293)"/>
<path d="M0 0 C0.99 0 1.98 0 3 0 C3 0.66 3 1.32 3 2 C1.04072937 3.7143618 -0.95880212 5.38405168 -3 7 C-3.33 5.68 -3.66 4.36 -4 3 C-2.68 2.67 -1.36 2.34 0 2 C0 1.34 0 0.68 0 0 Z " fill="#2756BD" transform="translate(526,383)"/>
<path d="M0 0 C1.2393919 3.5804655 0.87401862 6.34501304 0 10 C-0.66 10.66 -1.32 11.32 -2 12 C-1.85831863 10.56208484 -1.71148957 9.1246763 -1.5625 7.6875 C-1.48128906 6.88699219 -1.40007812 6.08648438 -1.31640625 5.26171875 C-1 3 -1 3 0 0 Z " fill="#3D7EF5" transform="translate(159,527)"/>
<path d="M0 0 C0.66 0.33 1.32 0.66 2 1 C1.01 1.66 0.02 2.32 -1 3 C-1.99 2.67 -2.98 2.34 -4 2 C-2.125 0.9375 -2.125 0.9375 0 0 Z M-4 3 C-4.33 3.99 -4.66 4.98 -5 6 C-6.65 6 -8.3 6 -10 6 C-6.25 3 -6.25 3 -4 3 Z " fill="#3D7FF9" transform="translate(357,223)"/>
<path d="M0 0 C0.91222891 3.07877257 1.32903218 5.79193623 1 9 C-0.515625 10.65234375 -0.515625 10.65234375 -2 12 C-1.85831863 10.56208484 -1.71148957 9.1246763 -1.5625 7.6875 C-1.48128906 6.88699219 -1.40007812 6.08648437 -1.31640625 5.26171875 C-1 3 -1 3 0 0 Z " fill="#3C7FF9" transform="translate(164,505)"/>
<path d="M0 0 C0.66 0.33 1.32 0.66 2 1 C0.35 2.98 -1.3 4.96 -3 7 C-3.66 6.67 -4.32 6.34 -5 6 C-4.1875 3.5625 -4.1875 3.5625 -3 1 C-2.01 0.67 -1.02 0.34 0 0 Z " fill="#2656BA" transform="translate(540,370)"/>
<path d="M0 0 C1.32 0.33 2.64 0.66 4 1 C3.01 1.33 2.02 1.66 1 2 C0.67 1.34 0.34 0.68 0 0 Z " fill="#3A6DD7" transform="translate(507,862)"/>
<path d="M0 0 C1 4 1 4 1 4 Z " fill="#467AE1" transform="translate(144,576)"/>
<path d="M0 0 C4 1 4 1 4 1 Z " fill="#3971DC" transform="translate(547,367)"/>
<path d="M0 0 C0.66 0.66 1.32 1.32 2 2 C1.34 2 0.68 2 0 2 C0 1.34 0 0.68 0 0 Z " fill="#3A6FD9" transform="translate(624,862)"/>
<path d="M0 0 C3 1 3 1 3 1 Z " fill="#3A6FD7" transform="translate(600,863)"/>
<path d="M0 0 C0.66 0.66 1.32 1.32 2 2 C1.34 2 0.68 2 0 2 C0 1.34 0 0.68 0 0 Z " fill="#3A6ED6" transform="translate(552,862)"/>
<path d="M0 0 C0.66 0.66 1.32 1.32 2 2 C1.34 2 0.68 2 0 2 C0 1.34 0 0.68 0 0 Z " fill="#3F73DB" transform="translate(360,862)"/>
<path d="M0 0 C0.66 0 1.32 0 2 0 C1.67 0.66 1.34 1.32 1 2 C0.67 1.34 0.34 0.68 0 0 Z " fill="#437BEB" transform="translate(364,494)"/>
<path d="" fill="#457AE1" transform="translate(0,0)"/>
<path d="" fill="#3F76E0" transform="translate(0,0)"/>
<path d="" fill="#4377DF" transform="translate(0,0)"/>
<path d="M0 0 C0.99 0.495 0.99 0.495 2 1 C1.01 1.495 1.01 1.495 0 2 C0 1.34 0 0.68 0 0 Z " fill="#4B7ADB" transform="translate(220,288)"/>
<path d="" fill="#3B6ED9" transform="translate(0,0)"/>
<path d="M0 0 C2 1 2 1 2 1 Z " fill="#3B6FD7" transform="translate(592,863)"/>
<path d="M0 0 C2 1 2 1 2 1 Z " fill="#386ED7" transform="translate(504,863)"/>
<path d="M0 0 C2 1 2 1 2 1 Z " fill="#3D71DC" transform="translate(456,863)"/>
<path d="M0 0 C2 1 2 1 2 1 Z " fill="#3D74DD" transform="translate(448,863)"/>
<path d="M0 0 C2 1 2 1 2 1 Z " fill="#3F73DC" transform="translate(437,863)"/>
<path d="M0 0 C2 1 2 1 2 1 Z " fill="#3F73DD" transform="translate(408,863)"/>
<path d="M0 0 C2 1 2 1 2 1 Z " fill="#3F74DE" transform="translate(384,863)"/>
<path d="M0 0 C2 1 2 1 2 1 Z " fill="#396CD0" transform="translate(664,862)"/>
<path d="M0 0 C2 1 2 1 2 1 Z " fill="#3F71D6" transform="translate(352,862)"/>
<path d="M0 0 C2 1 2 1 2 1 Z " fill="#3B71D7" transform="translate(336,855)"/>
<path d="M0 0 C2 1 2 1 2 1 Z " fill="#396CD3" transform="translate(711,823)"/>
<path d="" fill="#3F74E1" transform="translate(0,0)"/>
<path d="" fill="#4174DD" transform="translate(0,0)"/>
<path d="" fill="#386DDD" transform="translate(0,0)"/>
<path d="M0 0 C2 1 2 1 2 1 Z " fill="#386FDF" transform="translate(561,675)"/>
<path d="" fill="#4575D5" transform="translate(0,0)"/>
<path d="" fill="#4376DF" transform="translate(0,0)"/>
<path d="" fill="#4879DC" transform="translate(0,0)"/>
<path d="M0 0 C2 1 2 1 2 1 Z " fill="#3C72E2" transform="translate(342,563)"/>
<path d="" fill="#457BE3" transform="translate(0,0)"/>
<path d="" fill="#3A70E0" transform="translate(0,0)"/>
<path d="" fill="#3A6EE1" transform="translate(0,0)"/>
<path d="" fill="#427EF1" transform="translate(0,0)"/>
<path d="" fill="#477BE0" transform="translate(0,0)"/>
<path d="M0 0 C2 1 2 1 2 1 Z " fill="#376EDE" transform="translate(560,487)"/>
<path d="M0 0 C2 1 2 1 2 1 Z " fill="#477CE9" transform="translate(420,487)"/>
<path d="M0 0 C2 1 2 1 2 1 Z " fill="#437CE8" transform="translate(373,487)"/>
<path d="" fill="#3F76E0" transform="translate(0,0)"/>
<path d="" fill="#4076E1" transform="translate(0,0)"/>
<path d="" fill="#4177DE" transform="translate(0,0)"/>
<path d="" fill="#4077DF" transform="translate(0,0)"/>
<path d="" fill="#4C79DA" transform="translate(0,0)"/>
<path d="" fill="#4C7AD9" transform="translate(0,0)"/>
<path d="M0 0 C2 1 2 1 2 1 Z " fill="#3D75E1" transform="translate(740,256)"/>
<path d="M0 0 C2 1 2 1 2 1 Z " fill="#477BE4" transform="translate(297,248)"/>
<path d="M0 0 C2 1 2 1 2 1 Z " fill="#3F77E6" transform="translate(710,241)"/>
<path d="M0 0 C2 1 2 1 2 1 Z " fill="#3B74E3" transform="translate(691,232)"/>
<path d="M0 0 C2 1 2 1 2 1 Z " fill="#3D74E0" transform="translate(644,208)"/>
<path d="M0 0 C2 1 2 1 2 1 Z " fill="#3D74E1" transform="translate(612,192)"/>
<path d="M0 0 C2 1 2 1 2 1 Z " fill="#3F76E4" transform="translate(579,176)"/>
<path d="M0 0 C2 1 2 1 2 1 Z " fill="#3F75DF" transform="translate(532,152)"/>
<path d="" fill="#396CD4" transform="translate(0,0)"/>
<path d="" fill="#3B6DD5" transform="translate(0,0)"/>
<path d="" fill="#3A6ED6" transform="translate(0,0)"/>
<path d="" fill="#3B6ED7" transform="translate(0,0)"/>
<path d="" fill="#3A6CD7" transform="translate(0,0)"/>
<path d="" fill="#3A6DD8" transform="translate(0,0)"/>
<path d="" fill="#3A6ED6" transform="translate(0,0)"/>
<path d="" fill="#396DD8" transform="translate(0,0)"/>
<path d="" fill="#3A6ED7" transform="translate(0,0)"/>
<path d="" fill="#396DD5" transform="translate(0,0)"/>
<path d="" fill="#396CD8" transform="translate(0,0)"/>
<path d="" fill="#396CD4" transform="translate(0,0)"/>
<path d="" fill="#376AD6" transform="translate(0,0)"/>
<path d="" fill="#3C6FD9" transform="translate(0,0)"/>
<path d="" fill="#3D71DA" transform="translate(0,0)"/>
<path d="" fill="#3F72DC" transform="translate(0,0)"/>
<path d="" fill="#3E72DC" transform="translate(0,0)"/>
<path d="" fill="#3E72DB" transform="translate(0,0)"/>
<path d="" fill="#3F73DC" transform="translate(0,0)"/>
<path d="" fill="#3E71DD" transform="translate(0,0)"/>
<path d="" fill="#3F72DF" transform="translate(0,0)"/>
<path d="" fill="#4173DF" transform="translate(0,0)"/>
<path d="" fill="#3F74DD" transform="translate(0,0)"/>
<path d="" fill="#4074DE" transform="translate(0,0)"/>
<path d="" fill="#3E75DE" transform="translate(0,0)"/>
<path d="" fill="#4073DD" transform="translate(0,0)"/>
<path d="" fill="#4274DD" transform="translate(0,0)"/>
<path d="" fill="#4074DA" transform="translate(0,0)"/>
<path d="" fill="#4073DB" transform="translate(0,0)"/>
<path d="" fill="#3F71D8" transform="translate(0,0)"/>
<path d="" fill="#3E6CCF" transform="translate(0,0)"/>
<path d="" fill="#3C6FD6" transform="translate(0,0)"/>
<path d="" fill="#3A6ED8" transform="translate(0,0)"/>
<path d="" fill="#3C71D8" transform="translate(0,0)"/>
<path d="" fill="#3C73D9" transform="translate(0,0)"/>
<path d="" fill="#3C71DA" transform="translate(0,0)"/>
<path d="" fill="#3C72DC" transform="translate(0,0)"/>
<path d="" fill="#3B70D9" transform="translate(0,0)"/>
<path d="" fill="#4274DF" transform="translate(0,0)"/>
<path d="" fill="#3F71DB" transform="translate(0,0)"/>
<path d="" fill="#3B6CCF" transform="translate(0,0)"/>
<path d="" fill="#3E71D8" transform="translate(0,0)"/>
<path d="" fill="#3C6ED6" transform="translate(0,0)"/>
<path d="" fill="#3D71D8" transform="translate(0,0)"/>
<path d="" fill="#3F71DA" transform="translate(0,0)"/>
<path d="" fill="#4174D7" transform="translate(0,0)"/>
<path d="" fill="#3A6EDA" transform="translate(0,0)"/>
<path d="" fill="#3F6ED3" transform="translate(0,0)"/>
<path d="" fill="#3F70D4" transform="translate(0,0)"/>
<path d="" fill="#3E70D5" transform="translate(0,0)"/>
<path d="" fill="#3E70D6" transform="translate(0,0)"/>
<path d="" fill="#3E71D9" transform="translate(0,0)"/>
<path d="" fill="#3A6BD3" transform="translate(0,0)"/>
<path d="" fill="#3E71D9" transform="translate(0,0)"/>
<path d="" fill="#4175DD" transform="translate(0,0)"/>
<path d="" fill="#3D72E1" transform="translate(0,0)"/>
<path d="" fill="#386CD4" transform="translate(0,0)"/>
<path d="" fill="#3F6FDA" transform="translate(0,0)"/>
<path d="" fill="#3B6DDA" transform="translate(0,0)"/>
<path d="" fill="#3F72DC" transform="translate(0,0)"/>
<path d="" fill="#4273D8" transform="translate(0,0)"/>
<path d="" fill="#3F72DC" transform="translate(0,0)"/>
<path d="" fill="#3F72DB" transform="translate(0,0)"/>
<path d="" fill="#4475DA" transform="translate(0,0)"/>
<path d="" fill="#4076E9" transform="translate(0,0)"/>
<path d="" fill="#3F73E0" transform="translate(0,0)"/>
<path d="" fill="#3F6FDA" transform="translate(0,0)"/>
<path d="" fill="#4174DB" transform="translate(0,0)"/>
<path d="" fill="#4173DA" transform="translate(0,0)"/>
<path d="" fill="#4171DB" transform="translate(0,0)"/>
<path d="" fill="#4073DB" transform="translate(0,0)"/>
<path d="" fill="#386DD8" transform="translate(0,0)"/>
<path d="" fill="#4075DD" transform="translate(0,0)"/>
<path d="" fill="#386EDB" transform="translate(0,0)"/>
<path d="" fill="#4174DF" transform="translate(0,0)"/>
<path d="" fill="#4172DE" transform="translate(0,0)"/>
<path d="" fill="#3B71DA" transform="translate(0,0)"/>
<path d="" fill="#4074E2" transform="translate(0,0)"/>
<path d="" fill="#3B6FDD" transform="translate(0,0)"/>
<path d="" fill="#3A73E0" transform="translate(0,0)"/>
<path d="" fill="#4174DD" transform="translate(0,0)"/>
<path d="" fill="#4176E0" transform="translate(0,0)"/>
<path d="" fill="#3C70D8" transform="translate(0,0)"/>
<path d="" fill="#4175DD" transform="translate(0,0)"/>
<path d="" fill="#4575D9" transform="translate(0,0)"/>
<path d="" fill="#4375DA" transform="translate(0,0)"/>
<path d="" fill="#4376DC" transform="translate(0,0)"/>
<path d="" fill="#3E75E7" transform="translate(0,0)"/>
<path d="" fill="#3F73E2" transform="translate(0,0)"/>
<path d="" fill="#3B72DF" transform="translate(0,0)"/>
<path d="" fill="#4475DF" transform="translate(0,0)"/>
<path d="" fill="#4477E2" transform="translate(0,0)"/>
<path d="" fill="#4374DB" transform="translate(0,0)"/>
<path d="" fill="#4073DA" transform="translate(0,0)"/>
<path d="" fill="#3B70E0" transform="translate(0,0)"/>
<path d="" fill="#3F76E5" transform="translate(0,0)"/>
<path d="" fill="#4076E3" transform="translate(0,0)"/>
<path d="" fill="#4476DA" transform="translate(0,0)"/>
<path d="" fill="#3870DC" transform="translate(0,0)"/>
<path d="" fill="#3E77E2" transform="translate(0,0)"/>
<path d="" fill="#3A70DD" transform="translate(0,0)"/>
<path d="" fill="#4278DF" transform="translate(0,0)"/>
<path d="" fill="#4375DD" transform="translate(0,0)"/>
<path d="" fill="#3F70D9" transform="translate(0,0)"/>
<path d="" fill="#3F74DF" transform="translate(0,0)"/>
<path d="" fill="#4777DA" transform="translate(0,0)"/>
<path d="" fill="#447AE1" transform="translate(0,0)"/>
<path d="" fill="#3D71D5" transform="translate(0,0)"/>
<path d="" fill="#4576D8" transform="translate(0,0)"/>
<path d="" fill="#3E71D8" transform="translate(0,0)"/>
<path d="" fill="#4171D7" transform="translate(0,0)"/>
<path d="" fill="#3F70D5" transform="translate(0,0)"/>
<path d="" fill="#3870E6" transform="translate(0,0)"/>
<path d="" fill="#3E75DB" transform="translate(0,0)"/>
<path d="" fill="#3A71E3" transform="translate(0,0)"/>
<path d="" fill="#3A6FDF" transform="translate(0,0)"/>
<path d="" fill="#3B74E1" transform="translate(0,0)"/>
<path d="" fill="#4273D9" transform="translate(0,0)"/>
<path d="" fill="#4175DD" transform="translate(0,0)"/>
<path d="" fill="#3E72DA" transform="translate(0,0)"/>
<path d="" fill="#3B75E5" transform="translate(0,0)"/>
<path d="" fill="#3B74E3" transform="translate(0,0)"/>
<path d="" fill="#4274DA" transform="translate(0,0)"/>
<path d="" fill="#3E74DE" transform="translate(0,0)"/>
<path d="" fill="#4778DD" transform="translate(0,0)"/>
<path d="" fill="#3D74E6" transform="translate(0,0)"/>
<path d="" fill="#3B74E3" transform="translate(0,0)"/>
<path d="" fill="#3B73E4" transform="translate(0,0)"/>
<path d="" fill="#3E75E2" transform="translate(0,0)"/>
<path d="" fill="#3D76E4" transform="translate(0,0)"/>
<path d="" fill="#3A72E3" transform="translate(0,0)"/>
<path d="" fill="#3C72DB" transform="translate(0,0)"/>
<path d="" fill="#3A74E6" transform="translate(0,0)"/>
<path d="" fill="#3C76E2" transform="translate(0,0)"/>
<path d="" fill="#427AE8" transform="translate(0,0)"/>
<path d="" fill="#3B71E3" transform="translate(0,0)"/>
<path d="" fill="#3D71E1" transform="translate(0,0)"/>
<path d="" fill="#3D6FE0" transform="translate(0,0)"/>
<path d="" fill="#447AE0" transform="translate(0,0)"/>
<path d="" fill="#4275DF" transform="translate(0,0)"/>
<path d="" fill="#4074DE" transform="translate(0,0)"/>
<path d="" fill="#3971DF" transform="translate(0,0)"/>
<path d="" fill="#4074DF" transform="translate(0,0)"/>
<path d="" fill="#396EDE" transform="translate(0,0)"/>
<path d="" fill="#4175DE" transform="translate(0,0)"/>
<path d="" fill="#3970E0" transform="translate(0,0)"/>
<path d="" fill="#3A6EE2" transform="translate(0,0)"/>
<path d="" fill="#386EDC" transform="translate(0,0)"/>
<path d="" fill="#366DE1" transform="translate(0,0)"/>
<path d="" fill="#3F76E1" transform="translate(0,0)"/>
<path d="" fill="#396FE1" transform="translate(0,0)"/>
<path d="" fill="#467EE6" transform="translate(0,0)"/>
<path d="" fill="#467CE5" transform="translate(0,0)"/>
<path d="" fill="#3A73E1" transform="translate(0,0)"/>
<path d="" fill="#4778E2" transform="translate(0,0)"/>
<path d="" fill="#386FE1" transform="translate(0,0)"/>
<path d="" fill="#3B71E3" transform="translate(0,0)"/>
<path d="" fill="#477EE7" transform="translate(0,0)"/>
<path d="" fill="#4176DF" transform="translate(0,0)"/>
<path d="" fill="#356EE1" transform="translate(0,0)"/>
<path d="" fill="#3B72E1" transform="translate(0,0)"/>
<path d="" fill="#4376DD" transform="translate(0,0)"/>
<path d="" fill="#3870DD" transform="translate(0,0)"/>
<path d="" fill="#396FE0" transform="translate(0,0)"/>
<path d="" fill="#3870E0" transform="translate(0,0)"/>
<path d="" fill="#3870E0" transform="translate(0,0)"/>
<path d="" fill="#376EDC" transform="translate(0,0)"/>
<path d="" fill="#366FDD" transform="translate(0,0)"/>
<path d="" fill="#366FDC" transform="translate(0,0)"/>
<path d="" fill="#376FDB" transform="translate(0,0)"/>
<path d="" fill="#3A70DB" transform="translate(0,0)"/>
<path d="" fill="#3B72DF" transform="translate(0,0)"/>
<path d="" fill="#3D73DF" transform="translate(0,0)"/>
<path d="" fill="#447CE7" transform="translate(0,0)"/>
<path d="" fill="#477EE9" transform="translate(0,0)"/>
<path d="" fill="#447DEC" transform="translate(0,0)"/>
<path d="" fill="#447FEC" transform="translate(0,0)"/>
<path d="" fill="#417CE9" transform="translate(0,0)"/>
<path d="" fill="#3B71E0" transform="translate(0,0)"/>
<path d="" fill="#3972E2" transform="translate(0,0)"/>
<path d="" fill="#386EDD" transform="translate(0,0)"/>
<path d="" fill="#3B74E0" transform="translate(0,0)"/>
<path d="" fill="#447AE2" transform="translate(0,0)"/>
<path d="" fill="#4377E2" transform="translate(0,0)"/>
<path d="" fill="#4879DD" transform="translate(0,0)"/>
<path d="" fill="#376CDA" transform="translate(0,0)"/>
<path d="" fill="#386EDA" transform="translate(0,0)"/>
<path d="" fill="#366BDC" transform="translate(0,0)"/>
<path d="" fill="#366CDA" transform="translate(0,0)"/>
<path d="" fill="#346ADA" transform="translate(0,0)"/>
<path d="" fill="#386DDD" transform="translate(0,0)"/>
<path d="" fill="#386CDC" transform="translate(0,0)"/>
<path d="" fill="#4579E4" transform="translate(0,0)"/>
<path d="" fill="#366BDD" transform="translate(0,0)"/>
<path d="" fill="#376FDE" transform="translate(0,0)"/>
<path d="" fill="#386EDB" transform="translate(0,0)"/>
<path d="" fill="#386DDD" transform="translate(0,0)"/>
<path d="" fill="#457AE2" transform="translate(0,0)"/>
<path d="" fill="#4579E3" transform="translate(0,0)"/>
<path d="" fill="#437AE7" transform="translate(0,0)"/>
<path d="" fill="#497CDE" transform="translate(0,0)"/>
<path d="" fill="#376DDD" transform="translate(0,0)"/>
<path d="" fill="#386DDA" transform="translate(0,0)"/>
<path d="" fill="#487BE0" transform="translate(0,0)"/>
<path d="" fill="#366DDA" transform="translate(0,0)"/>
<path d="" fill="#376ADD" transform="translate(0,0)"/>
<path d="" fill="#4175DD" transform="translate(0,0)"/>
<path d="" fill="#366AD9" transform="translate(0,0)"/>
<path d="" fill="#366ADC" transform="translate(0,0)"/>
<path d="" fill="#336ADE" transform="translate(0,0)"/>
<path d="" fill="#3569DD" transform="translate(0,0)"/>
<path d="" fill="#336BDD" transform="translate(0,0)"/>
<path d="" fill="#3366DE" transform="translate(0,0)"/>
<path d="" fill="#3769D5" transform="translate(0,0)"/>
<path d="" fill="#356AD9" transform="translate(0,0)"/>
<path d="" fill="#356BDC" transform="translate(0,0)"/>
<path d="" fill="#3F75E1" transform="translate(0,0)"/>
<path d="" fill="#366BD9" transform="translate(0,0)"/>
<path d="" fill="#4679E3" transform="translate(0,0)"/>
<path d="" fill="#477ADE" transform="translate(0,0)"/>
<path d="" fill="#356CDB" transform="translate(0,0)"/>
<path d="" fill="#467BE4" transform="translate(0,0)"/>
<path d="" fill="#4476E0" transform="translate(0,0)"/>
<path d="" fill="#487AE3" transform="translate(0,0)"/>
<path d="" fill="#4477DA" transform="translate(0,0)"/>
<path d="" fill="#4476DA" transform="translate(0,0)"/>
<path d="" fill="#4177E1" transform="translate(0,0)"/>
<path d="" fill="#487BE1" transform="translate(0,0)"/>
<path d="" fill="#4277DD" transform="translate(0,0)"/>
<path d="" fill="#4577D8" transform="translate(0,0)"/>
<path d="" fill="#4478DD" transform="translate(0,0)"/>
<path d="" fill="#4376DC" transform="translate(0,0)"/>
<path d="" fill="#3E75E0" transform="translate(0,0)"/>
<path d="" fill="#4B7CDE" transform="translate(0,0)"/>
<path d="" fill="#4A7CE3" transform="translate(0,0)"/>
<path d="" fill="#4477DE" transform="translate(0,0)"/>
<path d="" fill="#4477DE" transform="translate(0,0)"/>
<path d="" fill="#4778E0" transform="translate(0,0)"/>
<path d="" fill="#3F74E0" transform="translate(0,0)"/>
<path d="" fill="#3E76E2" transform="translate(0,0)"/>
<path d="" fill="#3C73DF" transform="translate(0,0)"/>
<path d="" fill="#4475DD" transform="translate(0,0)"/>
<path d="" fill="#3D74E4" transform="translate(0,0)"/>
<path d="" fill="#477DE6" transform="translate(0,0)"/>
<path d="" fill="#4479E2" transform="translate(0,0)"/>
<path d="" fill="#447AE2" transform="translate(0,0)"/>
<path d="" fill="#4377E1" transform="translate(0,0)"/>
<path d="" fill="#3E76E4" transform="translate(0,0)"/>
<path d="" fill="#477DE6" transform="translate(0,0)"/>
<path d="" fill="#4276E3" transform="translate(0,0)"/>
<path d="" fill="#4378E1" transform="translate(0,0)"/>
<path d="" fill="#497AE0" transform="translate(0,0)"/>
<path d="" fill="#3C74E1" transform="translate(0,0)"/>
<path d="" fill="#4B79DF" transform="translate(0,0)"/>
<path d="" fill="#4176E1" transform="translate(0,0)"/>
<path d="" fill="#487AE1" transform="translate(0,0)"/>
<path d="" fill="#4377E1" transform="translate(0,0)"/>
<path d="" fill="#3F75E2" transform="translate(0,0)"/>
<path d="" fill="#4478E2" transform="translate(0,0)"/>
<path d="" fill="#4478E2" transform="translate(0,0)"/>
<path d="" fill="#3E76E3" transform="translate(0,0)"/>
<path d="" fill="#3C74E2" transform="translate(0,0)"/>
<path d="" fill="#3B74E5" transform="translate(0,0)"/>
<path d="" fill="#4379E3" transform="translate(0,0)"/>
<path d="" fill="#3E74E1" transform="translate(0,0)"/>
<path d="" fill="#477CEB" transform="translate(0,0)"/>
<path d="" fill="#427AE4" transform="translate(0,0)"/>
<path d="" fill="#4279E1" transform="translate(0,0)"/>
<path d="" fill="#457CE5" transform="translate(0,0)"/>
<path d="" fill="#3E74E3" transform="translate(0,0)"/>
<path d="" fill="#4679E2" transform="translate(0,0)"/>
<path d="" fill="#477AE6" transform="translate(0,0)"/>
<path d="" fill="#477CE7" transform="translate(0,0)"/>
<path d="" fill="#4378E4" transform="translate(0,0)"/>
<path d="" fill="#4579E3" transform="translate(0,0)"/>
<path d="" fill="#4C7CE2" transform="translate(0,0)"/>
<path d="" fill="#3F78E6" transform="translate(0,0)"/>
<path d="" fill="#4376E2" transform="translate(0,0)"/>
<path d="" fill="#4678E1" transform="translate(0,0)"/>
<path d="" fill="#3F75E4" transform="translate(0,0)"/>
<path d="" fill="#477EE7" transform="translate(0,0)"/>
<path d="" fill="#4479E1" transform="translate(0,0)"/>
<path d="" fill="#3E75E2" transform="translate(0,0)"/>
<path d="" fill="#4479DE" transform="translate(0,0)"/>
<path d="" fill="#467BE1" transform="translate(0,0)"/>
<path d="" fill="#3F76E2" transform="translate(0,0)"/>
<path d="" fill="#3F75E3" transform="translate(0,0)"/>
<path d="" fill="#3F75E1" transform="translate(0,0)"/>
</svg>
